<?xml version="1.0" standalone="no"?><!DOCTYPE svg PUBLIC "-//W3C//DTD SVG 1.1//EN" "http://www.w3.org/Graphics/SVG/1.1/DTD/svg11.dtd"><svg t="1560304643454" class="icon" style="" viewBox="0 0 1024 1024" version="1.1" xmlns="http://www.w3.org/2000/svg" p-id="8915" xmlns:xlink="http://www.w3.org/1999/xlink" width="32" height="32"><defs><style type="text/css"></style></defs><path d="M810.666667 128 213.333333 128C166.4 128 128 166.4 128 213.333333l0 597.333333c0 46.933333 38.4 85.333333 85.333333 85.333333l597.333333 0c46.933333 0 85.333333-38.4 85.333333-85.333333L896 213.333333C896 166.4 857.6 128 810.666667 128zM384 725.333333 298.666667 725.333333l0-298.666667 85.333333 0L384 725.333333zM554.666667 725.333333l-85.333333 0L469.333333 298.666667l85.333333 0L554.666667 725.333333zM725.333333 725.333333l-85.333333 0 0-170.666667 85.333333 0L725.333333 725.333333z" p-id="8916" fill="#ffffff"></path></svg>