<?xml version="1.0" encoding="utf-8"?>
<!-- Generator: Adobe Illustrator 22.0.0, SVG Export Plug-In . SVG Version: 6.00 Build 0)  -->
<svg version="1.1" id="图层_1" xmlns="http://www.w3.org/2000/svg" xmlns:xlink="http://www.w3.org/1999/xlink" x="0px" y="0px"
	 viewBox="0 0 128 128" style="enable-background:new 0 0 128 128;" xml:space="preserve">
<g>
	<path d="M10.8,128c-2,0-3.7-1.4-3.7-3v-17.8c0-1.7,1.6-3,3.7-3c2,0,4.3,1.4,4.3,3v14.3h98v-14.3c0-1.7,2.2-3,4.3-3
		c2,0,3.7,1.4,3.7,3V125c0,1.7-1.6,3-3.7,3L10.8,128L10.8,128z"/>
	<path d="M3.7,110.2c-2,0-3.7-1.4-3.7-3v-8.9c0-4.9,4.8-9,10.8-9c14.6,0,38.9-10.1,38.9-20.8v-3c0-5,0-5.7-8.7-13
		c-8-5.7-12.6-14-12.6-22.8c0-8,3.7-15.4,10.4-21.1C45.5,3.1,54.5,0,64,0c9.5,0,18.5,3.1,25.2,8.7c6.7,5.6,10.4,13.1,10.4,21.1
		c0,8.8-4.6,17.1-12.6,22.8c-8.7,7.3-8.7,7.9-8.7,12.1c0,2.5,0,3.6,0,3.9c0.1,10.7,24.3,20.8,38.9,20.8c5.9,0,10.7,4,10.7,9v8.9
		c0,1.7-1.6,3-3.6,3H3.7z M8.1,103.5H120v-6.6c0-1.6-2.5-2.8-4.4-2.8c-8.3,0-19.4-2.8-28.2-7.2c-10.7-5.3-16.7-12-16.7-18.8
		c0-0.1,0-1.1,0-3.7c0-6.2,1.3-8.2,10.5-15.9c6.5-4.6,10.1-11,10.1-17.8c0-12.7-12.3-23-27.4-23c-15.1,0-27.4,10.3-27.4,23
		c0,6.8,3.6,13.3,9.8,17.7c4.8,4,7.5,6.5,9,8.9c1.6,2.6,1.8,5,1.8,8v2.9c0,6.8-5.9,13.5-16.7,18.8c-8.8,4.4-19.8,7.2-28.2,7.2
		c-1.8,0-4.4,1.3-4.4,2.8L8.1,103.5l1,0L8.1,103.5L8.1,103.5z"/>
</g>
</svg>
