<?xml version="1.0" encoding="iso-8859-1"?>
<!-- Generator: Adobe Illustrator 22.0.0, SVG Export Plug-In . SVG Version: 6.00 Build 0)  -->
<svg version="1.1" id="&#x56FE;&#x5C42;_1" xmlns="http://www.w3.org/2000/svg" xmlns:xlink="http://www.w3.org/1999/xlink" x="0px"
	 y="0px" viewBox="0 0 1024 768" style="enable-background:new 0 0 1024 768;" xml:space="preserve">
<path d="M520.519,347.866c80.673,0,146.067-65.399,146.067-146.067c0-80.673-65.394-146.068-146.067-146.068
	c-80.669,0-146.067,65.395-146.067,146.068c0,38.738,15.392,75.889,42.784,103.282C444.626,332.474,481.781,347.866,520.519,347.866
	L520.519,347.866z M411.734,363.166c-79.918-54.001-108.267-158.365-66.663-245.379C386.68,30.769,485.71-12.683,577.915,15.615
	c92.209,28.299,149.813,119.826,135.441,215.2c-14.369,95.376-96.384,165.865-192.837,165.738
	c-90.292-0.074-176.91,35.743-240.783,99.565c-63.873,63.818-99.759,150.407-99.759,240.702c0.997,9.318-3.413,18.387-11.356,23.361
	c-7.947,4.97-18.031,4.97-25.979,0c-7.943-4.974-12.353-14.043-11.356-23.361C131.3,564.038,245.14,411.916,410.899,363.166H411.734
	z M411.734,363.166"/>
<g>
	<path d="M576.426,764.364l-8.347-35.89c8.651,1.396,17.393,2.141,26.154,2.225c2.188,0.168,4.34-0.627,5.891-2.178
		c1.55-1.554,2.346-3.706,2.177-5.89v-75.12l-30.325,10.851l-9.461-37.283c13.353-3.339,27.822-7.232,39.786-11.686v-77.066h-36.169
		V495.88h36.169v-61.765h37.283v61.765h29.489v36.447h-29.489v61.487c8.904-4.176,18.082-9.461,27.822-14.468v38.115
		c-8.904,4.732-18.087,9.461-27.822,13.632v100.995c1.594,8.955-1.287,18.127-7.72,24.56c-6.43,6.43-15.601,9.311-24.556,7.716
		H576.426z"/>
	<path d="M888.314,464.161c-67.905,10.671-136.599,15.51-205.328,14.468l-11.408-33.665c66.499,0.587,132.959-3.317,198.93-11.686
		L888.314,464.161z"/>
	<path d="M740.301,526.484l-30.326,11.686c-6.565-16.8-14.57-32.994-23.929-48.412l31.997-8.626
		c8.284,14.468,15.271,29.644,20.864,45.352H740.301z"/>
	<path d="M818.202,702.877c22.152-18.507,39.523-42.081,50.637-68.723v-18.083h21.979l-0.836-74.566h-38.95
		c10.406-17.382,19.699-35.413,27.822-53.972l-35.332-13.358c-8.347,23.336-18.775,45.868-31.161,67.33H673.249v74.566h18.919
		v20.033h15.299c9.707,24.959,24.923,47.404,44.519,65.659c-29.882,13.453-61.132,23.621-93.205,30.325l19.753,35.89
		c36.905-9.127,72.451-23.064,105.723-41.455c28.845,18.493,60.248,32.646,93.206,42.012L900,734.313
		C871.621,726.992,844.177,716.447,818.202,702.877z M708.861,577.674H854.37v24.486H708.861V577.674z M785.373,681.73h-1.394
		c-15.743-12.463-28.804-27.983-38.393-45.626h83.466C817.645,654.047,802.799,669.552,785.373,681.73z"/>
	<path d="M804.013,526.206l-30.325,11.686c-6.712-17.141-14.806-33.702-24.208-49.527l31.719-8.9
		c8.646,14.842,15.82,30.498,21.422,46.741H804.013z"/>
</g>
<path d="M1090.34,535.521"/>
</svg>
