<?xml version="1.0" encoding="iso-8859-1"?>
<!-- Generator: Adobe Illustrator 22.0.0, SVG Export Plug-In . SVG Version: 6.00 Build 0)  -->
<svg version="1.1" id="&#x56FE;&#x5C42;_1" xmlns="http://www.w3.org/2000/svg" xmlns:xlink="http://www.w3.org/1999/xlink" x="0px"
	 y="0px" viewBox="0 0 127.995 127.96" style="enable-background:new 0 0 127.995 127.96;" xml:space="preserve">
<path d="M63.993-0.024c4.418,0,8,3.582,8,8c0,4.418-3.582,8-8,8c-26.509,0-48,21.491-48,48s21.491,48,48,48s48-21.491,48-48
	c0-4.418,3.582-8,8-8c4.418,0,8,3.582,8,8c0,35.346-28.654,64-64,64s-64-28.654-64-64S28.647-0.024,63.993-0.024L63.993-0.024z"/>
<path d="M63.993,19.983c4.418,0,8,3.581,8,8c0,4.418-3.582,8-8,8c-15.462,0-28.002,12.534-28.002,27.998
	c0,15.462,12.537,28.002,28.002,28.002c9.456,0,18.102-4.719,23.276-12.432c2.46-3.67,7.43-4.649,11.1-2.188
	c3.67,2.461,4.649,7.431,2.189,11.1c-8.163,12.205-21.882,19.527-36.565,19.517c-24.299,0-44.002-19.699-44.002-43.998
	S39.694,19.98,63.993,19.98V19.983z"/>
<path d="M63.993,39.976c4.418,0,8,3.582,8,8s-3.582,8-8,8s-8,3.582-8,8s3.582,8,8,8s8,3.582,8,8s-3.582,8-8,8
	c-13.255,0-24-10.745-24-24S50.738,39.976,63.993,39.976L63.993,39.976z"/>
<path d="M63.993,39.976"/>
</svg>
