<?xml version="1.0" standalone="no"?><!DOCTYPE svg PUBLIC "-//W3C//DTD SVG 1.1//EN" "http://www.w3.org/Graphics/SVG/1.1/DTD/svg11.dtd"><svg t="1556594861279" class="icon" style="" viewBox="0 0 1024 1024" version="1.1" xmlns="http://www.w3.org/2000/svg" p-id="7228" xmlns:xlink="http://www.w3.org/1999/xlink" width="16" height="16"><defs><style type="text/css"></style></defs><path d="M345.185228 908.223137" p-id="7229"></path><path d="M387.233903 908.223137" p-id="7230"></path><path d="M896.250966 896.251477l0-606.820576-225.127364 0 0-161.682379-512.676405 0 0 768.502955-94.14417 0 0 32.745798 895.392924 0 0-32.745798L896.250966 896.251477zM640.424416 896.251477l-448.208115 0 0-735.757157 448.208115 0L640.424416 896.251477zM862.481861 896.251477l-191.358259 0 0-576.12139 191.358259 0L862.481861 896.251477zM799.036877 448.043363l-64.46829 0 0 127.913275 64.46829 0L799.036877 448.043363zM799.036877 640.424928l-64.46829 0 0 127.913275 64.46829 0L799.036877 640.424928zM383.57456 289.430902l-127.913275 0 0 63.444984 127.913275 0L383.57456 289.430902zM383.57456 480.789161l-127.913275 0 0 64.46829 127.913275 0L383.57456 480.789161zM383.57456 640.424928l-127.913275 0 0 63.444984 127.913275 0L383.57456 640.424928zM575.956126 640.424928l-127.913275 0 0 63.444984 127.913275 0L575.956126 640.424928zM575.956126 480.789161l-127.913275 0 0 64.46829 127.913275 0L575.956126 480.789161zM575.956126 289.430902l-127.913275 0 0 63.444984 127.913275 0L575.956126 289.430902z" p-id="7231"></path></svg>