<?xml version="1.0" encoding="utf-8"?>
<!-- Generator: Adobe Illustrator 22.0.0, SVG Export Plug-In . SVG Version: 6.00 Build 0)  -->
<svg version="1.1" id="图层_1" xmlns="http://www.w3.org/2000/svg" xmlns:xlink="http://www.w3.org/1999/xlink" x="0px" y="0px"
	 viewBox="0 0 128 128" style="enable-background:new 0 0 128 128;" xml:space="preserve">
<path d="M119.3,42.7H93.1V14.2h17.5c3.2,0,5.8-3.2,5.8-7.1S113.8,0,110.5,0H17.5c-3.2,0-5.8,3.2-5.8,7.1s2.6,7.1,5.8,7.1h17.5v28.4
	H8.7C3.9,42.7,0,47.4,0,53.3v64c0,5.9,3.9,10.7,8.7,10.7c0,0,0,0,0,0h110.5c4.8,0,8.7-4.8,8.7-10.7l0,0v-64
	C128,47.4,124.1,42.7,119.3,42.7L119.3,42.7z M46.5,14.2h34.9v28.4H46.5V14.2z M116.4,113.8H11.6V56.9h104.7V113.8z M33.9,100.4
	c1.8,0.1,3.6-0.3,5.2-1.1L38.6,96c-1.3,0.7-2.6,1-4,1c-4.1,0.1-7.4-3.8-7.5-8.7c0-0.6,0-1.1,0.1-1.7c-0.6-5,2.2-9.7,6.3-10.5
	c0.4-0.1,0.8-0.1,1.2-0.1c1.3,0,2.7,0.3,3.9,1l0.7-3.4c-1.5-0.8-3.1-1.2-4.7-1.1c-5.9-0.2-10.8,5.4-11,12.5c0,0.6,0,1.2,0,1.8
	c-0.7,6.7,3.3,12.8,8.8,13.6C32.9,100.4,33.4,100.4,33.9,100.4z M54.5,96.5h-8.6V72.8h-3.4V100h12V96.5z M61.2,92H68l2,8h3.5
	l-6.8-27.2h-4.1L55.9,100h3.5L61.2,92z M63.6,81.7c0.4-1.7,0.7-3.7,1-5.3h0.1c0.3,1.7,0.7,3.6,1.1,5.4l1.7,7.1h-5.7L63.6,81.7z
	 M81.2,96.9c-1.7,0-3.4-0.6-4.8-1.6l-0.8,3.4c1.6,1.1,3.5,1.7,5.4,1.6c3.7,0.7,7.1-2.4,7.7-6.9c0-0.4,0.1-0.7,0.1-1.1
	c-0.1-3.8-2.3-7.1-5.3-8c-2.1-0.4-3.8-2.4-4.1-5c0.1-2.2,1.6-3.8,3.4-3.7c0.1,0,0.2,0,0.3,0c1.4,0,2.7,0.4,4,1.2l0.8-3.4
	c-1.5-0.9-3-1.3-4.7-1.2c-3.5-0.5-6.8,2.5-7.2,6.9c0,0.2,0,0.5,0,0.7c0.3,3.8,2.5,6.9,5.6,7.8c2.1,0.5,3.6,2.5,3.8,5.1
	c0,2.4-1.6,4.3-3.5,4.2C81.6,97,81.4,97,81.2,96.9L81.2,96.9z M96.9,96.9c-1.7,0-3.4-0.6-4.8-1.6l-0.8,3.4c1.6,1.1,3.5,1.7,5.4,1.6
	c3.7,0.7,7.1-2.4,7.7-6.9c0-0.4,0.1-0.7,0.1-1.1c-0.1-3.8-2.3-7.1-5.3-8c-2.1-0.4-3.8-2.4-4.1-5c0.1-2.2,1.6-3.8,3.4-3.7
	c0.1,0,0.2,0,0.3,0c1.4,0,2.7,0.4,4,1.2l0.8-3.4c-1.5-0.9-3-1.3-4.7-1.2c-3.5-0.5-6.8,2.5-7.2,6.9c0,0.2,0,0.5,0,0.7
	c0.3,3.8,2.5,6.9,5.6,7.8c2.1,0.4,3.6,2.5,3.8,5.1c0,2.4-1.6,4.3-3.5,4.2C97.3,97,97.1,97,96.9,96.9L96.9,96.9z"/>
</svg>
