<?xml version="1.0" encoding="utf-8"?>
<!-- Generator: Adobe Illustrator 22.0.0, SVG Export Plug-In . SVG Version: 6.00 Build 0)  -->
<svg version="1.1" id="图层_1" xmlns="http://www.w3.org/2000/svg" xmlns:xlink="http://www.w3.org/1999/xlink" x="0px" y="0px"
	 viewBox="0 0 128 128" style="enable-background:new 0 0 128 128;" xml:space="preserve">
<path d="M128,128H72.7V105c0-4-3.8-7.3-8.4-7.3c-4.5,0-8.1,3.1-8.1,7V128H0V69.6h33V41.1l26.8-18.7V0h34.4v18.7H70.6v3.7l26.5,17.7
	v29.5H128L128,128L128,128L128,128z M80.2,120.9h40.2V76.6H89.6V43.7L65.2,27.4L40.5,44.6v32h-33v44.2h41.1v-16.1
	c0-7.8,7-14.1,15.6-14.1c8.8,0,15.9,6.5,15.9,14.4L80.2,120.9L80.2,120.9L80.2,120.9z M67.3,11.5h19.3V7H67.3
	C67.3,7,67.3,11.5,67.3,11.5z M64.6,69C56,69,49,62.6,49,54.8s7-14.1,15.6-14.1c8.6,0,15.6,6.3,15.6,14.1S73.2,69,64.6,69z
	 M64.6,47.8c-4.5,0-8.1,3.1-8.1,7s3.6,7,8.1,7c4.5,0,8.1-3.1,8.1-7C72.7,51,69.1,47.8,64.6,47.8z"/>
</svg>
