<?xml version="1.0" encoding="iso-8859-1"?>
<!-- Generator: Adobe Illustrator 22.0.0, SVG Export Plug-In . SVG Version: 6.00 Build 0)  -->
<svg version="1.1" id="&#x56FE;&#x5C42;_1" xmlns="http://www.w3.org/2000/svg" xmlns:xlink="http://www.w3.org/1999/xlink" x="0px"
	 y="0px" viewBox="0 0 133.533 127.996" style="enable-background:new 0 0 133.533 127.996;" xml:space="preserve">
<g>
	<path d="M66.315,79.416H37.351c-2.803,0-4.672,1.869-4.672,4.672c0,2.803,1.869,4.672,4.672,4.672h28.964
		c2.803,0,4.672-1.869,4.672-4.672C70.986,81.285,69.118,79.416,66.315,79.416z"/>
	<path d="M66.315,57.927H37.351c-2.803,0-4.672,1.869-4.672,4.672s1.869,4.672,4.672,4.672h28.964c2.803,0,4.672-1.869,4.672-4.672
		S69.118,57.927,66.315,57.927z"/>
	<path d="M80.255,90.639c-2.803,0-4.672,1.869-4.672,5.606c0,2.803,1.869,4.672,4.672,4.672h38.288l-3.737,3.737
		c-0.934,1.869-0.934,4.672,0.934,6.54c0.934,0.934,1.869,0.934,2.803,0.934c1.869,0,2.803-0.934,3.737-1.869l10.277-12.146
		c0.934-0.934,0.934-1.869,0.934-2.803c0-2.803-1.869-4.672-4.672-4.672H80.255V90.639z"/>
	<path d="M118.543,79.427H80.255c-2.803,0-4.672,1.869-4.672,4.672c0,2.803,1.869,4.672,4.672,4.672h48.565
		c2.803,0,4.672-1.869,4.672-4.672c0-0.934,0-1.869-0.934-2.803L122.28,69.15c-0.934-0.934-1.869-1.869-3.737-1.869
		c-0.934,0-1.869,0-2.803,0.934c-1.869,0.934-1.869,1.869-1.869,3.737c0,0.934,0,2.803,0.934,3.737L118.543,79.427L118.543,79.427z"
		/>
	<path d="M103.687,106.511c-2.803,0-5.606,1.869-5.606,5.606v5.606H25.205V49.518L62.578,13.08l35.504,35.504v14.949
		c0,2.803,1.869,4.672,4.672,4.672c2.803,0,4.672-1.869,4.672-4.672v-6.54l7.474,7.474c0.934,0.934,2.803,1.869,3.737,1.869
		c1.869,0,2.803-0.934,3.737-1.869c0.934-0.934,1.869-2.803,1.869-3.737c0-1.869-0.934-2.803-1.869-3.737L66.315,0.934
		C64.446,0,63.512,0,61.643,0c-0.934,0-1.869,0-2.803,0.934c-0.934,0-0.934,0.934-0.934,0.934L1.848,57.927
		c-0.934,0-1.869,1.869-1.869,2.803c0,1.869,0.934,2.803,1.869,3.737c0.934,0.934,2.803,1.869,3.737,1.869
		c1.869,0,2.803-0.934,3.737-1.869l5.606-5.606v61.664c0,0.934,0.934,2.803,1.869,3.737C17.731,126.131,19.6,128,21.468,128h82.219
		c2.803,0,5.606-1.869,5.606-5.606v-10.277C109.293,109.314,106.49,106.511,103.687,106.511L103.687,106.511z"/>
</g>
</svg>
