<?xml version="1.0" standalone="no"?><!DOCTYPE svg PUBLIC "-//W3C//DTD SVG 1.1//EN" "http://www.w3.org/Graphics/SVG/1.1/DTD/svg11.dtd"><svg t="1556592891823" class="icon" style="" viewBox="0 0 1024 1024" version="1.1" xmlns="http://www.w3.org/2000/svg" p-id="3496" xmlns:xlink="http://www.w3.org/1999/xlink" width="16" height="16"><defs><style type="text/css"></style></defs><path d="M224.494843 75.125234C224.494843 97.361359 224.28429 119.397285 224.91595 141.63341 225.540319 159.136316 235.581362 171.905999 250.63199 179.727968 273.843238 191.875612 297.054486 190.638683 318.378069 174.994746 330.502798 166.143195 337.19681 154.195749 337.19681 138.959355L337.19681 74.095652 337.19681 68.332848 686.178699 68.332848C686.178699 69.97732 686.389252 71.836289 686.389252 73.688109 686.389252 94.072414 687.013622 114.664066 686.178699 135.048371 685.133198 158.314078 700.191117 176.646367 720.679728 183.853445 740.965076 191.060523 760.408211 189.001359 778.392029 176.646367 792.193919 166.965433 799.301771 153.580859 799.301771 136.699992 799.091218 116.10834 799.301771 95.516688 799.301771 74.925035L799.301771 68.540195C801.392724 68.332848 802.859331 68.332848 804.318648 68.332848 832.336218 68.332848 860.564366 68.125503 888.581937 68.332848 923.293544 68.747542 953.402091 80.273148 976.823892 106.220058 992.50618 123.722964 999.40348 144.521961 999.40348 167.580323L999.40348 534.526421C999.40348 663.638939 998.779086 792.951657 999.614033 922.064173 1000.03514 976.017161 961.141579 1010.608277 918.690484 1020.289214 908.025072 1022.763071 896.735266 1023.792653 885.656038 1023.792653 636.619726 1024 387.583439 1024 138.554418 1024 109.905188 1024 83.768041 1017.000269 61.188428 999.290016 36.931705 980.142641 24.806951 955.432657 24.806951 924.745379L24.806951 602.693369C24.806951 459.374041 25.431345 315.854514 24.385869 172.535187 23.964763 115.493452 64.114352 81.517226 106.979288 71.843437 115.764277 69.784273 124.963107 68.75469 133.951383 68.75469 162.803901 68.339996 191.874213 68.547343 220.726731 68.547343 221.561678 68.132652 222.396601 68.132652 224.487578 68.132652 224.494843 70.799558 224.494843 73.06607 224.494843 75.125234ZM927.272185 252.251151 96.321117 252.251151 96.321117 259.529509 96.321117 904.344775 96.321117 909.039438C96.531671 917.727825 99.457595 925.470761 104.895577 931.575453 114.304936 942.138446 126.226401 944.72214 138.975525 944.72214L881.895191 944.72214C886.701514 944.72214 891.725655 944.485778 896.531978 943.784837 912.42482 941.201143 927.475473 928.290818 927.475473 905.053863 927.26492 689.800292 927.26492 474.318505 927.26492 259.064931L927.26492 252.259301 927.272185 252.251151ZM308.968686 84.806171 308.968686 142.462796C308.968686 160.58059 298.72438 170.054179 280.116168 169.024597 266.524856 168.202362 256.90492 161.202629 255.024497 150.699457 254.603391 148.640292 254.603391 146.581125 254.603391 144.521961L254.603391 26.534655C254.603391 9.446442 264.847721-0.849384 282.410432 0.180199 288.262256 0.594891 294.331874 2.654058 299.559303 5.328113 305.832233 8.624207 308.968686 14.387008 308.968686 22.008781 308.758133 43.015125 308.758133 64.01432 308.968686 84.813319L308.968686 84.806171ZM714.827929 84.806171 714.827929 26.534655C714.827929 8.209515 727.998134-2.708351 746.613612 0.587742 759.159447 2.646907 766.898935 9.03175 768.779359 18.705538 769.200465 20.764703 769.200465 22.823867 769.200465 24.883032 769.200465 64.829409 768.989912 104.775784 769.411019 144.929504 769.621572 159.758354 759.377242 167.165629 747.876907 169.024597 740.979607 170.261526 733.864489 169.639488 727.591559 166.350542 719.43823 162.232211 714.83517 156.262062 715.045723 146.788472 715.045723 125.989475 714.83517 105.397823 714.83517 84.806171L714.827929 84.806171ZM365.716066 390.097351 660.364427 390.097351 660.364427 765.330173 625.237443 765.330173 625.237443 735.989082 400.841757 735.989082 400.841757 765.330173 365.714773 765.330173 365.714773 390.097351 365.716066 390.097351ZM402.28608 414.478222 402.28608 538.040109 626.681766 538.040109 626.681766 414.478222 402.28608 414.478222 402.28608 414.478222ZM402.28608 585.14432 402.28608 715.319206 626.681766 715.319206 626.681766 585.14432 402.28608 585.14432 402.28608 585.14432Z" p-id="3497"></path></svg>