<?xml version="1.0" encoding="utf-8"?>
<!-- Generator: Adobe Illustrator 22.0.0, SVG Export Plug-In . SVG Version: 6.00 Build 0)  -->
<svg version="1.1" id="图层_1" xmlns="http://www.w3.org/2000/svg" xmlns:xlink="http://www.w3.org/1999/xlink" x="0px" y="0px"
	 viewBox="0 0 128 128" style="enable-background:new 0 0 128 128;" xml:space="preserve">
<path d="M64,101.3c28-1.4,49.5-25.3,48.1-53.2c-1.4-28-25.3-49.5-53.3-48c-27,1.4-48.1,23.6-48.1,50.6C11.5,79.4,35.3,102,64,101.3z
	 M64,15.4c19.5,1,34.5,17.6,33.5,37.1C96.6,72,79.9,87,60.4,86c-18.8-1-33.6-16.5-33.6-35.3C27.4,30.7,44,14.9,64,15.4L64,15.4z
	 M64,80.3c16.4-0.8,29-14.8,28.2-31.2C91.4,32.8,77.4,20.2,61,21c-15.8,0.8-28.2,13.8-28.2,29.7C33.2,67.5,47.2,80.8,64,80.3z
	 M64,27c13.1,0.7,23.1,11.8,22.4,24.9C85.8,64.9,74.7,75,61.6,74.3c-12.6-0.6-22.5-11-22.5-23.6C39.5,37.3,50.6,26.7,64,27z
	 M50.7,50.5c0.2-6.4,5.2-11.6,11.5-12v-5.8c-9.9,0.3-17.8,8.1-18.3,18h6.8L50.7,50.5L50.7,50.5z M127.9,120
	c-0.2-2.3-15.1-15.3-22.7-15.3s-24,11.7-40.9,11.7c-16,0-35-11.7-43.1-11.7S0,117.4,0,120v8h25.2v-1.4l78-0.1v1.5h24.7
	C127.9,128,128.1,122.2,127.9,120L127.9,120z"/>
</svg>
