<?xml version="1.0" encoding="utf-8"?>
<!-- Generator: Adobe Illustrator 22.0.0, SVG Export Plug-In . SVG Version: 6.00 Build 0)  -->
<svg version="1.1" id="图层_1" xmlns="http://www.w3.org/2000/svg" xmlns:xlink="http://www.w3.org/1999/xlink" x="0px" y="0px"
	 viewBox="0 0 128 128" style="enable-background:new 0 0 128 128;" xml:space="preserve">
<path d="M118.2,0H76.3v16h4.9c5.4,0,9.8,3.6,9.8,8s-4.4,8-9.8,8H46.8c-5.4,0-9.8-3.6-9.8-8s4.4-8,9.8-8h4.9V0H9.8C4.4,0,0,3.6,0,8
	v112c0,4.4,4.4,8,9.8,8h108.3c5.4,0,9.8-3.6,9.8-8V8C128,3.6,123.6,0,118.2,0z M93.6,111.3c0,0-19.3,0.7-29.6,0.7
	c-10.3,0-29.6-0.7-29.6-0.7c-1.3,0-2.3-1.1-2-2.4C35.1,96.6,44.7,86.8,57,84.1c-6.9-2.8-11.8-9.5-11.8-17.4C45.2,56.4,53.6,48,64,48
	s18.8,8.4,18.8,18.8c0,7.9-4.9,14.6-11.8,17.4c12.3,2.7,22,12.4,24.6,24.8C95.8,110.1,94.8,111.3,93.6,111.3z"/>
</svg>
