<?xml version="1.0" encoding="utf-8"?>
<!-- Generator: Adobe Illustrator 22.0.0, SVG Export Plug-In . SVG Version: 6.00 Build 0)  -->
<svg version="1.1" id="图层_1" xmlns="http://www.w3.org/2000/svg" xmlns:xlink="http://www.w3.org/1999/xlink" x="0px" y="0px"
	 viewBox="0 0 127.9 128" style="enable-background:new 0 0 127.9 128;" xml:space="preserve">
<path d="M54.2,89.1l-15.9,0l0-14.6v-1.7C54,70,66,54.9,66,36.7C65.9,16.4,51.2,0,32.9,0C14.7,0.1,0,16.5,0,36.7
	C0,54.9,12,70,27.6,72.8v1.7l0,14.6l-16.3,0c-3,0-5.4,2.7-5.4,6c0,3.3,2.4,5.9,5.4,5.9l16.3,0l0,21.1c0,3.3,2.4,5.9,5.4,5.9
	c3,0,5.4-2.7,5.4-6l0-21.1l15.9,0c3,0,5.4-2.7,5.4-6C59.6,91.7,57.2,89.1,54.2,89.1z M100.3,55.2l0-34.7l10,11.3
	c1,1.2,2.4,1.8,3.8,1.8c1.3,0,2.7-0.6,3.7-1.7c2.1-2.3,2.1-6.1,0.1-8.4L102.3,5.8c-0.9-1.3-2.9-3.6-6.2-4.1c-2-0.3-5.1,0.2-8.3,3.7
	c-4.1,4.6-15.9,18-15.9,18l0,0c-0.9,1.1-1.5,2.5-1.5,4.1c0,3.3,2.4,5.9,5.4,5.9c1.4,0,2.8-0.6,3.8-1.8c0,0,5.3-6,10-11.3l0,34.7
	C73.9,58.1,62,73.1,62,91.4c0,20.3,14.8,36.6,33,36.6c18.2,0,33-16.4,33-36.7C128,73.1,116,58,100.3,55.2L100.3,55.2z"/>
</svg>
