<?xml version="1.0" encoding="utf-8"?>
<!-- Generator: Adobe Illustrator 22.0.0, SVG Export Plug-In . SVG Version: 6.00 Build 0)  -->
<svg version="1.1" id="图层_1" xmlns="http://www.w3.org/2000/svg" xmlns:xlink="http://www.w3.org/1999/xlink" x="0px" y="0px"
	 viewBox="0 0 128 128.1" style="enable-background:new 0 0 128 128.1;" xml:space="preserve">
<g>
	<path d="M122.5,36.2L101.2,56l-55.4,53.6L43.8,128H6.6c-3.6,0-6.5-2.8-6.6-6.3V6.4C0,2.9,2.9,0,6.6,0h109.4c3.6,0,6.6,2.9,6.6,6.3
		L122.5,36.2L122.5,36.2z M16.2,67.2c0,1.7,1.5,3.2,3.3,3.2h29.3c1.8,0,3.3-1.4,3.3-3.2c0-1.7-1.5-3.2-3.3-3.2H19.5
		C17.7,64,16.2,65.4,16.2,67.2z M16.2,92.8c0,1.7,1.4,3.2,3.3,3.2h22.9c1.8,0,3.3-1.4,3.3-3.2c0-1.7-1.5-3.2-3.3-3.2H19.5
		c-0.9,0-1.7,0.3-2.3,0.9C16.5,91.1,16.2,92,16.2,92.8z M16.2,38.4c0,1.7,1.4,3.2,3.2,3.2H62c1.7-0.1,3-1.5,3-3.2
		c0-1.7-1.3-3.1-3-3.2H19.4C17.6,35.2,16.2,36.7,16.2,38.4z M75.1,124.8c0-1.8,1.4-3.2,3.3-3.2h6.5c1.8,0,3.3,1.5,3.3,3.2
		c0,1.8-1.4,3.2-3.3,3.2h-6.5C76.6,128,75.2,126.6,75.1,124.8z M91.5,124.8c0-1.8,1.4-3.2,3.3-3.2h6.5c1.8,0,3.3,1.5,3.3,3.2
		c0,1.8-1.4,3.2-3.3,3.2h-6.5C93,128,91.5,126.6,91.5,124.8z M107.8,124.8c0-1.8,1.5-3.2,3.3-3.2h9.7c1.8,0,3.3,1.5,3.3,3.2
		c0,1.8-1.5,3.2-3.3,3.2h-9.7C109.3,128,107.8,126.6,107.8,124.8z"/>
	<path d="M51.3,112.2c0-0.3,0.2-0.5,0.4-0.7l0.4-0.4l14.3,13.9l-0.4,0.4c-0.2,0.2-0.4,0.3-0.7,0.3l-14.7,2.1
		c-0.4,0.1-0.8-0.1-1.1-0.3c-0.3-0.3-0.4-0.7-0.4-1.1L51.3,112.2L51.3,112.2z M127.6,65.5l-6.3,6.1L107,57.6l6.3-6.1
		c0.5-0.5,1.3-0.5,1.8,0l12.5,12.2C128.1,64.2,128.1,65,127.6,65.5z M118.2,72.9c0.5,0.5,0.7,1,0.2,1.5l-50.4,48.9l-14.3-13.9
		l50.4-48.9c0.5-0.5,1.1-0.3,1.6,0.2L118.2,72.9z M89.8,83.2c0.3-0.3,0.5-0.7,0.5-1.1c0-0.4-0.2-0.8-0.5-1.1c-0.6-0.6-1.6-0.6-2.2,0
		l-24.2,23.5c-0.3,0.3-0.5,0.7-0.5,1.1c0,0.4,0.2,0.8,0.5,1.1c0.6,0.6,1.6,0.6,2.2,0L89.8,83.2z"/>
</g>
</svg>
