<?xml version="1.0" encoding="utf-8"?>
<!-- Generator: Adobe Illustrator 22.0.0, SVG Export Plug-In . SVG Version: 6.00 Build 0)  -->
<svg version="1.1" id="图层_1" xmlns="http://www.w3.org/2000/svg" xmlns:xlink="http://www.w3.org/1999/xlink" x="0px" y="0px"
	 viewBox="0 0 128 128" style="enable-background:new 0 0 128 128;" xml:space="preserve">
<path d="M101.5,90.8c-11.6-2.5-17.9-9.6-18.7-15.2c-0.4-2.3-0.2-6.5,5.2-9.2c4.5-2.2,7.5-6,9.4-11.6c0.1-0.3,0.3-0.6,0.6-0.8
	c0.1-0.1,9.8-6.6,7.4-11.1c-0.7-1.2-1.8-2.1-3-3.1c-0.6-0.4-1.6-1.2-2-1.7c1.9-11.6-0.7-21-8-27.8c-6.9-6.7-15.6-10-27.1-10.4V0
	h-2.4v0.1C51.3,0.4,42.6,3.8,35.6,10.4c-7.2,6.8-9.9,16.3-7.9,27.8c-0.4,0.5-1.4,1.3-2,1.7c-1.2,1-2.4,1.9-3,3.1
	c-2.5,4.5,7.3,11,7.4,11.1c0.3,0.2,0.5,0.4,0.6,0.8c1.9,5.6,4.9,9.4,9.4,11.6c5.4,2.6,5.6,6.8,5.2,9.2c-0.9,5.6-7.1,12.7-18.7,15.2
	C8.7,94.7,0,100.2,0,107.6v5.6c0.1,6.6,7.6,9.5,10.1,10.6c6.9,2.7,24.4,4.1,52.1,4.2h3.6c27.7-0.1,45.2-1.5,52.1-4.2
	c2.5-1,10-4,10.1-10.6v-5.6C127.9,100.1,119.3,94.7,101.5,90.8L101.5,90.8z M68.4,61c-1,0.8-2.4,1.3-3.9,1.3s-2.8-0.4-3.9-1.3
	c-1-0.9-1.6-2-1.6-3.3c0-1.3,0.5-2.4,1.6-3.3c1-0.9,2.4-1.3,3.9-1.3c1.6,0,2.9,0.4,3.9,1.3c1,0.8,1.6,1.9,1.6,3.3
	C70.1,59,69.5,60.1,68.4,61L68.4,61z M79.2,36c-0.7,0.7-2.8,2.4-6.2,5c-1.4,1-2.5,2.2-3.1,3.3c-0.8,1.3-1.2,2.7-1.2,4.2v1.1h-8v-1
	c0-2.4,0.4-4.4,1.5-6.1c1-1.8,3.8-4.4,8.4-7.9l1.3-1.2c1.3-1.5,2.1-3,2.1-4.7c0-2.2-0.7-4-2.2-5.2c-1.5-1.3-3.6-1.9-6.3-1.9
	c-3.3,0-5.8,0.9-7.3,2.8c-1.3,1.5-2,3.7-2,6.5h-7.8c0-4.7,1.6-8.3,4.7-11c3.1-2.8,7.4-4.1,12.9-4.1c4.8,0,8.6,1.1,11.6,3.5
	c3,2.2,4.5,5.3,4.5,9.2C82,31.3,81,33.9,79.2,36z"/>
</svg>
