<?xml version="1.0" encoding="utf-8"?>
<!-- Generator: Adobe Illustrator 22.0.0, SVG Export Plug-In . SVG Version: 6.00 Build 0)  -->
<svg version="1.1" id="图层_1" xmlns="http://www.w3.org/2000/svg" xmlns:xlink="http://www.w3.org/1999/xlink" x="0px" y="0px"
	 viewBox="0 0 128 128" style="enable-background:new 0 0 128 128;" xml:space="preserve">
<path d="M128,16c0-9.1-6.9-16-16-16H16C6.9,0,0,6.9,0,16v96c0,8.5,6.9,16,16,16h96c9.1,0,16-7.5,16-16V16z M76.8,100.3
	c0-1.6,1.6-3.2,3.2-3.2h23.5V80.6c0-1.6,1.6-3.2,3.2-3.2s3.2,1.6,3.2,3.2v19.2c0,1.6-1.6,3.2-3.2,3.2h-0.5H80
	C78.4,102.9,76.8,101.9,76.8,100.3z M81.1,21.9h25.6c1.6,0,3.2,1.6,3.2,3.2v19.2c0,1.6-1.6,3.2-3.2,3.2s-3.2-1.6-3.2-3.2V27.7H81.1
	c-1.6,0-3.2-1.6-3.2-3.2S79.5,21.9,81.1,21.9z M65.1,35.2c2.7,0,5.3,0.5,5.9,2.1c8.5,1.1,8,12.8,6.9,16c0.5,0,1.1,1.1,1.1,2.7
	c-0.5,2.7-1.6,3.7-2.1,3.7c-0.5,2.7-3.7,5.9-4.8,6.4v5.3c2.1,6.4,17.6,2.7,18.1,16.5H40.5c0.5-13.3,16-10.1,18.1-16.5v-5.3
	c-1.1-0.5-4.3-3.7-4.8-6.4c-0.5,0-2.1-0.5-2.1-3.7c0-1.6,0.5-2.7,1.1-2.7C50.1,44.3,53.9,35.7,65.1,35.2z M20.3,24.5
	c0-1.6,1.6-3.2,3.2-3.2h25.6c1.6,0,3.2,1.6,3.2,3.2s-1.6,3.2-3.2,3.2H26.7v16.5c0,1.6-1.6,3.2-3.2,3.2c-1.6,0-3.2-2.1-3.2-3.7
	C20.3,43.7,20.3,24.5,20.3,24.5z M20.3,80.5c0-1.6,1.6-3.2,3.2-3.2s3.2,1.6,3.2,3.2V97h22.4c1.6,0,3.2,1.6,3.2,3.2s-1.6,3.2-3.2,3.2
	H23.5c-1.6,0-3.2-1.6-3.2-3.2L20.3,80.5L20.3,80.5z"/>
</svg>
