<?xml version="1.0" encoding="utf-8"?>
<!-- Generator: Adobe Illustrator 22.0.0, SVG Export Plug-In . SVG Version: 6.00 Build 0)  -->
<svg version="1.1" id="图层_1" xmlns="http://www.w3.org/2000/svg" xmlns:xlink="http://www.w3.org/1999/xlink" x="0px" y="0px"
	 viewBox="0 0 128 128.1" style="enable-background:new 0 0 128 128.1;" xml:space="preserve">
<path d="M58.8,48.7l7.6-9.9c2.5-3.2,2.5-8.5,0-11.7c0,0,0,0,0,0l-19-24.6c-2.5-3.2-6.5-3.2-9.1,0c0,0,0,0,0,0l-19,24.6
	c-2.5,3.2-2.5,8.5,0,11.7c0,0,0,0,0,0l7.6,9.9H10.3V18.9c0-2.7-1.7-5-3.8-5H3.9c-2.1,0-3.8,2.2-3.8,5v43c0,2.7,1.7,5,3.8,5h120.3
	c2.1,0,3.8-2.2,3.8-5v-8.3c0-2.7-1.7-5-3.8-5H58.8z M1.3,71.8c-0.7,0-1.3,0.7-1.3,1.7c0,0,0,0,0,0v14.9C0,89.3,0.6,90,1.3,90h125.4
	c0.7,0,1.3-0.7,1.3-1.7V73.5c0-0.9-0.6-1.7-1.3-1.7c0,0,0,0,0,0H1.3z M1.3,95C0.6,95,0,95.7,0,96.7v29.8c0,0.9,0.6,1.7,1.3,1.7h11.5
	c0.7,0,1.3-0.7,1.3-1.6c0,0,0,0,0,0V96.7c0-0.9-0.6-1.7-1.3-1.7c0,0,0,0,0,0H1.3z M115.2,95c-0.7,0-1.3,0.7-1.3,1.6c0,0,0,0,0,0
	v29.8c0,0.9,0.6,1.7,1.3,1.7h11.5c0.7,0,1.3-0.7,1.3-1.7V96.7c0-0.9-0.6-1.7-1.3-1.7H115.2z"/>
</svg>
