<?xml version="1.0" encoding="utf-8"?>
<!-- Generator: Adobe Illustrator 22.0.0, SVG Export Plug-In . SVG Version: 6.00 Build 0)  -->
<svg version="1.1" id="图层_1" xmlns="http://www.w3.org/2000/svg" xmlns:xlink="http://www.w3.org/1999/xlink" x="0px" y="0px"
	 viewBox="0 0 128.1 128" style="enable-background:new 0 0 128.1 128;" xml:space="preserve">
<path d="M98.5,117.8H29.5c-2.7,0-4.9,5.1-4.9,5.1v5.1h78.8v-5.1C103.4,120.1,101.2,117.8,98.5,117.8z M113.3,0H14.8
	C6.6,0,0,6.9,0,15.4v71.7c0,8.5,6.6,15.4,14.8,15.4h34.5v5.1c0,2.8,2.2,5.1,4.9,5.1h19.7c2.7,0,4.9-2.6,4.9-5.1v-5.1h34.5
	c8.1,0,14.8-6.9,14.8-15.4V15.4C128,6.9,121.4,0,113.3,0L113.3,0z M106.9,30.5L87.2,50.9c-1.8,1.9-4.9,2-6.8,0.2
	c-0.1-0.1-0.1-0.1-0.2-0.2L70,40.3l-16.5,30c-1.2,2.4-4.2,3.3-6.5,2c-1.1-0.6-1.9-1.5-2.3-2.7l-7.1-18.4l-9.5,9.9
	c-1.8,1.9-4.8,2-6.7,0.2c-0.1-0.1-0.2-0.1-0.2-0.2c-1.9-2-1.9-5.2,0-7.2l14.8-15.4c1.2-1.2,2.8-1.7,4.5-1.4c1.6,0.4,3,1.5,3.6,3.1
	L50,56l14.5-26.5c0.7-1.5,2.1-2.5,3.7-2.7c1.5-0.2,3.1,0.3,4.1,1.5l11.3,11.7l16.2-16.9h0c1.8-1.9,4.9-2,6.8-0.2
	c0.1,0.1,0.1,0.1,0.2,0.2C108.8,25.2,108.8,28.4,106.9,30.5L106.9,30.5z"/>
</svg>
