<?xml version="1.0" encoding="utf-8"?>
<!-- Generator: Adobe Illustrator 22.0.0, SVG Export Plug-In . SVG Version: 6.00 Build 0)  -->
<svg version="1.1" id="图层_1" xmlns="http://www.w3.org/2000/svg" xmlns:xlink="http://www.w3.org/1999/xlink" x="0px" y="0px"
	 viewBox="0 0 128 128" style="enable-background:new 0 0 128 128;" xml:space="preserve">
<g>
	<path d="M21.2,80.9L21.2,80.9l-10.9,0C4.6,80.9,0,85.6,0,91.5v25.9c0,5.9,4.6,10.6,10.3,10.6h29.2c5.7,0,10.3-4.8,10.3-10.6V91.5
		c0-5.9-4.6-10.6-10.3-10.6H28.4v0L21.2,80.9L21.2,80.9z M39.5,88.3c1.7,0,3.1,1.4,3.1,3.2v25.9c0,1.7-1.4,3.2-3.1,3.2H10.3
		c-1.7,0-3.1-1.4-3.1-3.2V91.5c0-1.7,1.4-3.2,3.1-3.2L39.5,88.3L39.5,88.3z M68,47.2L68,47.2l10.3,0c5.7,0,10.3-4.8,10.3-10.6V10.6
		C88.6,4.8,84,0,78.3,0H49.1c-5.7,0-10.3,4.8-10.3,10.6v25.9c0,5.9,4.6,10.6,10.3,10.6h11.8v0L68,47.2L68,47.2z M49.1,39.7
		c-1.7,0-3.1-1.4-3.1-3.2V10.6c0-1.7,1.4-3.2,3.1-3.2h29.2c1.7,0,3.1,1.4,3.1,3.2v25.9c0,1.7-1.4,3.2-3.1,3.2L49.1,39.7L49.1,39.7z
		 M117.7,80.9h-11v0h-7.3v0H88.5c-5.7,0-10.3,4.8-10.3,10.6v25.9c0,5.9,4.6,10.6,10.3,10.6h29.2c5.7,0,10.3-4.8,10.3-10.6V91.5
		C128,85.6,123.4,80.9,117.7,80.9L117.7,80.9z M120.8,117.4c0,1.7-1.4,3.2-3.1,3.2H88.5c-1.7,0-3.1-1.4-3.1-3.2V91.5
		c0-1.7,1.4-3.2,3.1-3.2h29.2c1.7,0,3.1,1.4,3.1,3.2V117.4L120.8,117.4z"/>
	<path d="M106.7,80.9L106.7,80.9l0-19.2H68V47.2h-7.2v0l0,14.5l-39.7,0v19.2h7.2V69.1h71l0,11.8v0H106.7z"/>
	<path d="M7.2,117.4c0,1.7,1.4,3.1,3.1,3.2h29.2c1.7,0,3.1-1.4,3.1-3.2V91.5c0-1.7-1.4-3.2-3.1-3.2H10.3c-1.7,0-3.1,1.4-3.1,3.2
		V117.4 M85.5,117.4c0,1.7,1.4,3.2,3.1,3.2h29.2c1.7,0,3.1-1.4,3.1-3.2V91.5c0-1.7-1.4-3.2-3.1-3.2H88.5c-1.7,0-3.1,1.4-3.1,3.2
		L85.5,117.4"/>
</g>
</svg>
