<?xml version="1.0" encoding="utf-8"?>
<!-- Generator: Adobe Illustrator 22.0.0, SVG Export Plug-In . SVG Version: 6.00 Build 0)  -->
<svg version="1.1" id="图层_1" xmlns="http://www.w3.org/2000/svg" xmlns:xlink="http://www.w3.org/1999/xlink" x="0px" y="0px"
	 viewBox="0 0 109.7 128" style="enable-background:new 0 0 109.7 128;" xml:space="preserve">
<style type="text/css">
	.st0{fill:#4991F2;}
</style>
<g>
	<path d="M109.7,54.9C109.7,24.6,85.1,0,54.9,0S0,24.6,0,54.9c0,27.5,20.3,50.4,46.9,54.3l-0.6,9.7h-28v9.1h73.1v-9.1H63.7l-0.6-9.7
		C89.5,105.2,109.7,82.4,109.7,54.9z M54.9,100.6c-25.3,0-45.7-20.5-45.7-45.7S29.6,9.2,54.9,9.2c25.3,0,45.7,20.5,45.7,45.7
		S80.1,100.6,54.9,100.6z"/>
	<path d="M54.9,20.6c-19,0-34.3,15.3-34.3,34.3s15.3,34.3,34.3,34.3c19,0,34.3-15.3,34.3-34.3S73.8,20.6,54.9,20.6z M41.1,64
		c-7.5,0-13.7-6.2-13.7-13.7s6.2-13.7,13.7-13.7c7.5,0,13.7,6.2,13.7,13.7S48.7,64,41.1,64z"/>
</g>
<path class="st0" d="M-21.4,64"/>
</svg>
