<?xml version="1.0" encoding="utf-8"?>
<!-- Generator: Adobe Illustrator 22.0.0, SVG Export Plug-In . SVG Version: 6.00 Build 0)  -->
<svg version="1.1" id="图层_1" xmlns="http://www.w3.org/2000/svg" xmlns:xlink="http://www.w3.org/1999/xlink" x="0px" y="0px"
	 viewBox="0 0 142.5 128" style="enable-background:new 0 0 142.5 128;" xml:space="preserve">
<style type="text/css">
	.st0{fill:#4991F2;}
</style>
<path class="st0" d="M-12.2,64.5"/>
<g>
	<g>
		<path d="M99.5,27.9C99.5,12.5,87,0,71.6,0S43.7,12.5,43.7,27.9c0,14,10.4,25.6,23.9,27.6l-0.3,4.9H53v4.7h37.2v-4.7H76.1l-0.3-4.9
			C89.2,53.5,99.5,41.9,99.5,27.9z M71.6,51.2c-12.9,0-23.3-10.4-23.3-23.3S58.7,4.7,71.6,4.7C84.4,4.7,94.9,15,94.9,28
			S84.4,51.2,71.6,51.2z"/>
		<path d="M71.6,10.5c-9.7,0-17.4,7.8-17.4,17.4S62,45.3,71.6,45.3c9.7,0,17.4-7.8,17.4-17.4S81.2,10.5,71.6,10.5z M64.6,32.5
			c-3.8,0-7-3.1-7-7s3.1-7,7-7c3.8,0,7,3.1,7,7S68.5,32.5,64.6,32.5z"/>
	</g>
	<g>
		<path d="M142.5,90.8c0-15.4-12.5-27.9-27.9-27.9S86.8,75.4,86.8,90.8c0,14,10.4,25.6,23.9,27.6l-0.3,4.9H96v4.7h37.2v-4.7h-14.2
			l-0.3-4.9C132.2,116.4,142.5,104.8,142.5,90.8z M114.6,114.1c-12.9,0-23.3-10.4-23.3-23.3s10.4-23.2,23.3-23.2
			c12.8,0,23.3,10.4,23.3,23.3S127.5,114.1,114.6,114.1z"/>
		<path d="M114.6,73.4c-9.7,0-17.4,7.8-17.4,17.4s7.8,17.4,17.4,17.4c9.7,0,17.4-7.8,17.4-17.4S124.2,73.4,114.6,73.4z M107.6,95.4
			c-3.8,0-7-3.1-7-7c0-3.9,3.1-7,7-7c3.8,0,7,3.1,7,7C114.6,92.3,111.5,95.4,107.6,95.4z"/>
	</g>
	<g>
		<path d="M55.7,90.8c0-15.4-12.5-27.9-27.9-27.9S0,75.4,0,90.8c0,14,10.4,25.6,23.9,27.6l-0.3,4.9H9.3v4.7h37.2v-4.7H32.3l-0.3-4.9
			C45.5,116.4,55.7,104.8,55.7,90.8z M27.9,114.1c-12.9,0-23.3-10.4-23.3-23.3s10.4-23.2,23.3-23.2c12.8,0,23.3,10.4,23.3,23.3
			S40.7,114.1,27.9,114.1z"/>
		<path d="M27.9,73.4c-9.7,0-17.4,7.8-17.4,17.4s7.8,17.4,17.4,17.4c9.7,0,17.4-7.8,17.4-17.4S37.5,73.4,27.9,73.4z M20.8,95.4
			c-3.8,0-7-3.1-7-7c0-3.9,3.1-7,7-7c3.8,0,7,3.1,7,7C27.9,92.3,24.7,95.4,20.8,95.4z"/>
	</g>
	<polygon points="82.6,94.4 84.8,92.3 73.1,80.6 73.1,66.5 70.1,66.5 70.1,80.6 58.4,92.3 60.5,94.4 70.8,84.2 72.4,84.2 	"/>
</g>
</svg>
