<?xml version="1.0" standalone="no"?><!DOCTYPE svg PUBLIC "-//W3C//DTD SVG 1.1//EN" "http://www.w3.org/Graphics/SVG/1.1/DTD/svg11.dtd"><svg t="1556592835153" class="icon" style="" viewBox="0 0 1024 1024" version="1.1" xmlns="http://www.w3.org/2000/svg" p-id="2690" xmlns:xlink="http://www.w3.org/1999/xlink" width="16" height="16"><defs><style type="text/css"></style></defs><path d="M998.913576 955.71828L865.328516 822.133219c-9.455934-9.456934-17.929874-18.324871-26.203816-25.021824 3.547975-4.039972 6.896952-8.175943 10.244928-12.312913 1.085992-1.279991 2.068985-2.559982 3.051978-3.839973 1.181992-1.47999 2.364983-3.051979 3.547975-4.530968 0.987993-1.37799 2.067985-2.657981 3.050979-4.039972 1.182992-1.47999 2.268984-3.051979 3.445976-4.628967 0.982993-1.38199 1.970986-2.759981 3.051978-4.135971 1.084992-1.576989 2.164985-3.051979 3.249977-4.628968 0.983993-1.37699 1.971986-2.85698 2.95498-4.23397 1.085992-1.576989 2.165985-3.153978 3.153978-4.730967 0.982993-1.47999 1.873987-2.85698 2.856979-4.336969 0.982993-1.576989 2.067985-3.153978 3.050979-4.729967 0.983993-1.47999 1.873987-2.954979 2.759981-4.434969 0.982993-1.575989 1.970986-3.152978 2.953979-4.729966a110.063226 110.063226 0 0 1 2.75998-4.628968c0.885994-1.576989 1.873987-3.153978 2.759981-4.729967 0.885994-1.577989 1.770988-3.251977 2.759981-4.828966 0.884994-1.576989 1.770988-3.050979 2.559982-4.627967 0.981993-1.873987 2.067985-3.839973 3.050978-5.71396 1.279991-2.365983 2.462983-4.730967 3.644975-7.09195 0.982993-2.067985 2.068985-4.135971 3.051978-6.204956 0.690995-1.47999 1.37699-3.050979 2.165985-4.530969 0.884994-1.771988 1.673988-3.547975 2.559982-5.416962 0.689995-1.576989 1.37699-3.153978 2.067985-4.730966l2.365984-5.319963c0.689995-1.576989 1.37699-3.249977 2.067985-4.827966 0.690995-1.770988 1.47999-3.547975 2.165985-5.319963 0.690995-1.575989 1.279991-3.249977 1.873987-4.827966 0.690995-1.770988 1.37699-3.644974 2.067985-5.416961a277.34805 277.34805 0 0 0 1.771988-4.924966c0.690995-1.873987 1.279991-3.742974 1.970986-5.61696 0.588996-1.576989 1.084992-3.249977 1.673988-4.827966a134.239056 134.239056 0 0 0 1.873987-5.81096c0.491997-1.576989 0.987993-3.153978 1.479989-4.730966 0.588996-2.067985 1.279991-4.136971 1.873987-6.204957 0.393997-1.47999 0.884994-2.954979 1.279991-4.433968 0.689995-2.462983 1.279991-4.827966 1.969986-7.290949 0.297998-1.182992 0.589996-2.267984 0.886994-3.445976 0.884994-3.547975 1.770988-7.09095 2.656982-10.736924 0.296998-1.084992 0.490997-2.164985 0.690995-3.249978 0.588996-2.559982 1.182992-5.125964 1.673988-7.685946 0.296998-1.47999 0.589996-2.85698 0.885994-4.336969 0.491997-2.267984 0.885994-4.529968 1.279991-6.696953 0.296998-1.575989 0.588996-3.152978 0.788994-4.627967 0.393997-2.165985 0.689995-4.33697 1.084992-6.501955 0.296998-1.576989 0.491997-3.251977 0.690996-4.828966 0.296998-2.164985 0.589996-4.33597 0.885993-6.404955 0.194999-1.673988 0.393997-3.249977 0.588996-4.924965 0.296998-2.165985 0.490997-4.33697 0.787995-6.502954 0.194999-1.575989 0.394997-3.249977 0.491996-4.924966 0.193999-2.165985 0.393997-4.433969 0.588996-6.599953 0.096999-1.576989 0.296998-3.153978 0.393997-4.827966 0.193999-2.364983 0.296998-4.627967 0.490997-6.993951 0.097999-1.47999 0.194999-3.050979 0.296998-4.529968l0.296998-7.782946c0-1.279991 0.097999-2.559982 0.097999-3.839973 0.096999-3.839973 0.193999-7.782945 0.193999-11.622918 0-260.375169-211.808511-472.18368-472.18368-472.18368S9.716532 228.278395 9.716532 488.654564 221.524042 960.838244 481.900212 960.838244c3.839973 0 7.781945-0.096999 11.621918-0.194999 1.279991 0 2.559982-0.096999 3.839973-0.096999l7.781945-0.296998c1.47999-0.096999 3.051979-0.194999 4.531968-0.296998 2.364983-0.096999 4.627967-0.296998 6.992951-0.490996 1.576989-0.097999 3.153978-0.296998 4.828966-0.394997 2.267984-0.193999 4.433969-0.393997 6.696953-0.588996 1.673988-0.193999 3.249977-0.295998 4.827966-0.490997 2.164985-0.194999 4.33597-0.491997 6.501954-0.788994 1.673988-0.193999 3.250977-0.393997 4.925966-0.587996 2.164985-0.296998 4.33597-0.589996 6.501954-0.885994 1.576989-0.194999 3.250977-0.491997 4.827966-0.690995 2.165985-0.296998 4.33697-0.690995 6.502954-1.085992 1.575989-0.296998 3.050979-0.490997 4.627968-0.787995 2.267984-0.393997 4.530968-0.885994 6.799952-1.279991 1.37699-0.296998 2.85598-0.588996 4.23397-0.885994 2.559982-0.490997 5.221963-1.084992 7.781946-1.673988 1.084992-0.194999 2.067985-0.491997 3.153977-0.690995 3.644974-0.885994 7.193949-1.674988 10.736925-2.657981 0.982993-0.296998 1.969986-0.490997 2.953979-0.787995 2.559982-0.690995 5.221963-1.37699 7.781945-2.068985 1.38299-0.393997 2.759981-0.787994 4.233971-1.279991 2.165985-0.587996 4.33697-1.279991 6.405955-1.969986 1.47999-0.491997 3.050979-0.988993 4.529968-1.47999 1.971986-0.691995 4.039972-1.279991 6.011958-1.971986 1.576989-0.490997 3.153978-1.084992 4.627967-1.576989 1.970986-0.689995 3.839973-1.37699 5.810959-2.067986 1.576989-0.588996 3.153978-1.182992 4.730967-1.771987 1.873987-0.689995 3.742974-1.38199 5.61696-2.164985 1.576989-0.589996 3.153978-1.182992 4.627968-1.873987 1.873987-0.788994 3.742974-1.47999 5.61696-2.268984 1.576989-0.587996 3.050979-1.279991 4.627968-1.969986 1.873987-0.789994 3.742974-1.674988 5.61696-2.462983 1.47999-0.691995 2.953979-1.279991 4.433969-1.971986 1.970986-0.884994 3.941972-1.770988 5.810959-2.75998 1.37699-0.689995 2.759981-1.279991 4.039972-1.969986 2.364983-1.182992 4.729967-2.365983 7.09095-3.548975 1.279991-0.689995 2.559982-1.279991 3.839973-1.969987 2.759981-1.47999 5.616961-2.954979 8.375941-4.434968 1.279991-0.690995 2.657981-1.47999 3.942972-2.165985 1.873987-0.982993 3.742974-2.067985 5.615961-3.152978 1.47999-0.788994 2.85698-1.674988 4.336969-2.462983 1.673988-0.987993 3.445976-1.970986 5.124964-3.051978 1.47999-0.884994 2.953979-1.770988 4.33697-2.661982a81.05043 81.05043 0 0 0 4.827966-3.051978 66.734531 66.734531 0 0 0 4.336969-2.85698c1.576989-0.982993 3.153978-2.067985 4.729967-3.153978 1.47999-0.982993 2.85698-1.969986 4.33697-2.953979 1.576989-1.084992 3.051979-2.165985 4.628967-3.250977a65.44854 65.44854 0 0 0 4.23397-3.050979 77.799453 77.799453 0 0 0 4.530968-3.348976c1.37699-0.982993 2.759981-2.067985 4.233971-3.050979 1.576989-1.182992 3.051979-2.365983 4.531968-3.445975 1.37699-1.085992 2.656981-2.068985 4.039971-3.153978l4.729967-3.839973c1.182992-0.982993 2.462983-1.970986 3.645975-2.95398 2.656981-2.268984 5.319963-4.433969 7.981943-6.799952 6.798952 8.47394 15.66189 17.239879 24.825826 26.403815l133.585061 133.58506c44.431688 46.693672 99.5013-2.564982 49.950648-49.459652z m-398.988194-819.574237c3.153978 0 6.307956 0.594996 9.061936 1.771987v-0.096999c80.194436 33.397765 144.423985 97.627314 177.918749 177.82175a24.401828 24.401828 0 0 1 1.873987 9.359934c0 13.100908-10.639925 23.642834-23.643834 23.642834-10.541926 0-19.409864-6.798952-22.461842-16.255886-28.665798-67.383526-82.656419-121.471146-150.136944-150.136944-9.456934-3.056979-16.255886-12.021915-16.255886-22.461843 0-13.101908 10.638925-23.643834 23.643834-23.643833zM440.724501 451.216827c0-6.245956 2.283984-11.652918 6.850952-16.219886 4.566968-4.566968 9.97393-6.849952 16.219886-6.849951h253.756216c38.204731 0 70.829502 13.516905 97.862312 40.549714 25.712819 25.712819 39.172725 56.493603 40.427715 92.313351-1.965986 9.691932-4.397969 19.204865-7.07595 28.614799H440.724501V451.216827z m-180.58573-19.106865c18.021873-18.022873 39.77172-27.03381 65.238541-27.03381s47.216668 9.010937 65.238541 27.03381 27.03381 39.77172 27.03381 65.238541-9.011937 47.215668-27.03381 65.238541c-18.021873 18.021873-39.76672 27.03281-65.238541 27.03281s-47.216668-9.009937-65.238541-27.03281c-18.021873-18.022873-27.03381-39.76672-27.03381-65.239541s9.011937-47.209668 27.03381-65.237541zM763.68223 742.814777v-37.846734H210.040123v56.273605c-40.161718-38.773727-71.899494-86.159394-92.277351-139.217022V358.940476c0-6.246956 2.283984-11.652918 6.849952-16.219886 4.567968-4.566968 9.97393-6.850952 16.219886-6.850952h46.136675c6.245956 0 11.652918 2.283984 16.219886 6.849952 4.566968 4.567968 6.849952 9.97393 6.849952 16.219886V612.695692h622.854621c2.86198 0 5.529961 0.537996 8.037943 1.499989-17.233879 47.989663-43.672693 91.586356-77.249457 128.619096z" fill="" p-id="2691"></path></svg>