<?xml version="1.0" encoding="utf-8"?>
<!-- Generator: Adobe Illustrator 22.0.0, SVG Export Plug-In . SVG Version: 6.00 Build 0)  -->
<svg version="1.1" id="图层_1" xmlns="http://www.w3.org/2000/svg" xmlns:xlink="http://www.w3.org/1999/xlink" x="0px" y="0px"
	 viewBox="0 0 127.8 127.7" style="enable-background:new 0 0 127.8 127.7;" xml:space="preserve">
<style type="text/css">
	.st0{clip-path:url(#SVGID_2_);}
</style>
<g>
	<g>
		<g>
			<defs>
				<rect id="SVGID_1_" x="0" y="-0.1" width="127.8" height="128"/>
			</defs>
			<clipPath id="SVGID_2_">
				<use xlink:href="#SVGID_1_"  style="overflow:visible;"/>
			</clipPath>
			<path class="st0" d="M105,9.1h-9.1V4.5c-0.1-2.5-2.2-4.5-4.7-4.4c-2.4,0.1-4.3,2-4.4,4.4v4.5H41.1V4.5C41.1,2,39,0,36.5,0
				C34,0,32,2,32,4.5v4.5h-9.1C10.3,9.1,0.1,19.3,0,31.9v73c0,12.6,10.2,22.8,22.8,22.8H105c12.6,0,22.8-10.2,22.8-22.8v-73
				C127.7,19.3,117.5,9.1,105,9.1L105,9.1z M118.7,104.9c0,7.5-6.2,13.7-13.7,13.7H22.9c-7.5,0-13.7-6.1-13.7-13.7v-73
				c0-7.5,6.2-13.7,13.7-13.7H32v13.7c-0.1,2.5,1.8,4.7,4.3,4.7c2.5,0.1,4.7-1.8,4.7-4.3V18.2h45.6v13.7c0.1,2.5,2.3,4.5,4.8,4.3
				c2.3-0.1,4.1-2,4.3-4.3V18.2h9.1c7.5,0,13.7,6.2,13.7,13.7L118.7,104.9z"/>
		</g>
	</g>
	<path d="M63.9,110.6c-20.2,0-36.7-16.5-36.7-36.7c0-20.2,16.5-36.7,36.7-36.7c20.2,0,36.7,16.5,36.7,36.7
		C100.6,94.1,84.1,110.6,63.9,110.6L63.9,110.6z M63.9,46.8c-15,0-27.2,12.2-27.2,27.2c0,15,12.2,27.2,27.2,27.2
		c15,0,27.2-12.2,27.2-27.2C91.1,59,78.9,46.8,63.9,46.8L63.9,46.8z"/>
	<path d="M63.9,80c-2.6,0-4.7-2.1-4.7-4.7V61.5c0-2.6,2.1-4.7,4.7-4.7c2.6,0,4.7,2.1,4.7,4.7v13.8C68.7,77.9,66.5,80,63.9,80
		L63.9,80z"/>
	<path d="M72.4,88.5c-1.2,0-2.4-0.5-3.4-1.4l-8.5-8.5c-1.8-1.8-1.8-4.9,0-6.7c1.8-1.8,4.9-1.8,6.7,0l8.5,8.5c1.8,1.8,1.8,4.9,0,6.7
		C74.8,88,73.6,88.5,72.4,88.5L72.4,88.5z"/>
</g>
</svg>
