<?xml version="1.0" encoding="utf-8"?>
<!-- Generator: Adobe Illustrator 22.0.0, SVG Export Plug-In . SVG Version: 6.00 Build 0)  -->
<svg version="1.1" id="图层_1" xmlns="http://www.w3.org/2000/svg" xmlns:xlink="http://www.w3.org/1999/xlink" x="0px" y="0px"
	 viewBox="0 0 129.3 128" style="enable-background:new 0 0 129.3 128;" xml:space="preserve">
<path d="M236.7,173.2l0.4-0.4L236.7,173.2z"/>
<path d="M214.2,162.1l0.4-0.4L214.2,162.1z"/>
<g>
	<path d="M57.3,0C36.7,0,19.9,16.8,19.9,37.4c0,14.5,8.2,27,20.2,33.2C17.3,77.8,0.8,99.1,0.7,124.2v0.3c0.1,2,1.7,3.5,3.7,3.5
		s3.6-1.5,3.8-3.5c0-27.2,22-49.1,49.1-49.1c3.8,0,7.5,0.4,11.1,1.3c3.9-5.7,9.3-10.2,15.6-13.1c2.3-2.3,4.3-4.9,5.9-7.8v0
		c0.4-0.6,0.7-1.3,1-1.9c2.4-5,3.8-10.6,3.8-16.5C94.6,16.7,77.9,0,57.3,0z M57.3,67.1c-16.6,0-29.6-13.2-29.6-29.6
		c0-16.6,13.1-29.6,29.6-29.6c16.6,0,29.6,13.1,29.6,29.6C86.9,54.1,73.8,67.1,57.3,67.1z"/>
	<g>
		<path d="M97.1,62.2C79.3,62.2,65,77,65,95c0,6.7,2.1,13.2,5.8,18.7c0.9,1.2,2.5,1.6,3.7,0.7c1.2-0.9,1.4-2.5,0.7-3.7
			c-3.2-4.6-4.9-9.9-4.9-15.7c0-15,12-27.5,26.8-27.5s26.8,12.3,26.8,27.5c0,15.3-12,27.5-26.8,27.5c-5.1,0-10.2-1.4-14.3-4.4
			c-1.2-0.7-2.8-0.5-3.7,0.9c-0.7,1.2-0.5,3,0.7,3.7c5.1,3.5,11.1,5.1,17.3,5.1c17.8,0,32.1-14.8,32.1-32.8
			C129.3,77,114.9,62.2,97.1,62.2L97.1,62.2z"/>
		<path d="M91.6,60.8h10.9c1.4,0,2.3-0.9,2.3-2.3c0-1.4-1.2-2.3-2.3-2.3H91.6c-1.4,0-2.3,0.9-2.3,2.3C89.3,59.9,90.2,60.8,91.6,60.8
			L91.6,60.8z"/>
		<path d="M97.4,73.7h-0.7c-0.9,0-1.6,0.7-1.6,1.6V98c0,0.2,0.2,0.7,0.5,0.9l0.7,0.5c0.7,0.5,1.6,0.5,2.3-0.2l7.2-8.3
			c0.5-0.7,0.5-1.6-0.2-2.3l-0.7-0.5c-0.7-0.5-1.6-0.5-2.3,0.2L99,92.2V75.4C99,74.4,98.3,73.7,97.4,73.7L97.4,73.7z"/>
		<path d="M123.2,72.8c0.7,0.7,1.8,0.5,2.8-0.5c0.9-0.9,1.2-2.1,0.5-2.8l-5.3-5.3c-0.7-0.7-1.8-0.5-2.8,0.5
			c-0.9,0.9-1.2,2.1-0.5,2.8L123.2,72.8z"/>
	</g>
</g>
<path d="M21.3,79.8"/>
</svg>
