<?xml version="1.0" encoding="utf-8"?>
<!-- Generator: Adobe Illustrator 22.0.0, SVG Export Plug-In . SVG Version: 6.00 Build 0)  -->
<svg version="1.1" id="图层_1" xmlns="http://www.w3.org/2000/svg" xmlns:xlink="http://www.w3.org/1999/xlink" x="0px" y="0px"
	 viewBox="0 0 128.1 128" style="enable-background:new 0 0 128.1 128;" xml:space="preserve">
<g>
	<path d="M94.4,128h-91c-1.9,0-3.4-1.8-3.4-4s1.5-4,3.4-4h91c1.9,0,3.4,1.8,3.4,4S96.3,128,94.4,128z M85.8,116.3H12
		c-1.9,0-3.4-1.8-3.4-4V45.8c0-2.2,1.5-4,3.4-4h73.8c1.9,0,3.4,1.8,3.4,4v66.5C89.2,114.5,87.7,116.3,85.8,116.3
		C85.8,116.3,85.8,116.3,85.8,116.3L85.8,116.3z M15.4,108.2h67V49.8h-67C15.4,49.8,15.4,108.2,15.4,108.2z"/>
	<path d="M56.6,63.7H22.6c-1.3,0-2.3-1.2-2.3-2.7s1-2.7,2.3-2.7h34c1.3,0,2.3,1.2,2.3,2.7C58.8,62.5,57.8,63.7,56.6,63.7z
		 M56.6,74.9H22.6c-1.3,0-2.3-1.2-2.3-2.7s1-2.7,2.3-2.7h34c1.3,0,2.3,1.2,2.3,2.7C58.8,73.7,57.8,74.9,56.6,74.9z M56.6,87.4H22.6
		c-1.3,0-2.3-1.2-2.3-2.7s1-2.7,2.3-2.7h34c1.3,0,2.3,1.2,2.3,2.7C58.8,86.2,57.8,87.4,56.6,87.4z M45,98.7H22.6
		c-1.3,0-2.3-1.2-2.3-2.7s1-2.7,2.3-2.7H45c1.3,0,2.3,1.2,2.3,2.7S46.2,98.7,45,98.7z M64.4,100.1l-4.1-26.6l19.1,16L72.9,91
		l4.7,10.3l-2.9,2.8l-5.5-11L64.4,100.1z M46.4,45.9c0,1.4,0.8,2.5,1.8,2.5c1,0,1.8-1.1,1.8-2.5c0,0,0,0,0,0c0-1.4-0.8-2.5-1.8-2.5
		C47.3,43.4,46.4,44.5,46.4,45.9C46.4,45.9,46.4,45.9,46.4,45.9z M127.2,46.4c0.7,0.2,1.1-0.8,0.5-1.5l-6.9-9.4v-4
		c0-0.7-0.4-1.2-0.9-1.3c0,0-0.1,0-0.1,0h-0.9l0,24.7c-0.4,0.1-0.5,0.4-0.6,0.8l-0.1,1.7c0,0.9,0.3,1.1,0.3,1.9l-0.1,2
		c0,0.6-0.4,0.8-0.4,1.6l-1.4,14.6c0.7,1.7,5.7,1.7,6.5,0l-1.4-14.6c0-0.8-0.4-1-0.4-1.6l-0.1-2.1c0-0.8,0.3-0.8,0.3-1.9l-0.1-1.8
		c0-0.5-0.2-0.8-0.6-0.9l0-9.6C123,45.7,125.1,46.1,127.2,46.4L127.2,46.4z M116.6,30.2v14L103.4,42c0,0,1.1,9.4-0.1,8.8
		c-1.3-0.7-9.2-7.3-19.5-9.5c-10.3-2.2-21-4.1-21-4.1s-1-0.5-0.7-1.6c0.3-1.1,3.2-14.8,8.6-16.7c5.4-1.9,11.7-0.7,18.6,2.2
		c9,4.1,12.4,7.8,12.4,7.8s-1.6-3.7-5.8-6.3c-4.1-2.5-11.9-6.4-21.5-6.4c-9.6,0-11,10-11,10L44.8,0l54.1,7.4L116.6,30.2L116.6,30.2z
		"/>
</g>
</svg>
