<?xml version="1.0" encoding="iso-8859-1"?>
<!-- Generator: Adobe Illustrator 22.0.0, SVG Export Plug-In . SVG Version: 6.00 Build 0)  -->
<svg version="1.1" id="&#x56FE;&#x5C42;_1" xmlns="http://www.w3.org/2000/svg" xmlns:xlink="http://www.w3.org/1999/xlink" x="0px"
	 y="0px" viewBox="0 0 123.156 128.011" style="enable-background:new 0 0 123.156 128.011;" xml:space="preserve">
<g>
	<path d="M85.134,24.427C79.758,6.63,59.97-3.733,40.936,1.282c-19.034,5.016-30.107,23.51-24.727,41.306
		c2.413,7.989,7.743,14.459,14.591,18.734c-1.088,0.213-2.08,0.807-2.666,1.783L0.5,109.508c-1.074,1.789-0.39,4.054,1.527,5.056
		c0.031,0.016,0.066,0.013,0.096,0.029c0.02,0.009,0.03,0.028,0.047,0.038l24.17,12.914c1.916,1.002,4.341,0.363,5.415-1.427
		c1.074-1.791,0.39-4.054-1.527-5.056l-20.869-11.15l7.071-11.873l20.907,11.172c1.915,1.002,4.34,0.363,5.415-1.427
		c1.075-1.789,0.391-4.054-1.527-5.055L20.299,91.546l14.777-24.813c0.578-0.961,0.612-2.048,0.254-3.016
		c7.559,3.363,16.386,4.305,25.073,2.016C79.435,60.717,90.507,42.225,85.134,24.427z M58.211,58.476
		c-14.748,3.886-30.187-4.135-34.363-17.958c-4.175-13.823,4.499-28.201,19.247-32.087c14.748-3.886,30.187,4.137,34.363,17.961
		C81.632,40.213,72.959,54.59,58.211,58.476z"/>
	<path d="M113.716,111.709c-1.627,0.271-3.283,0.407-4.97,0.407c-5.482,0-10.557-1.356-15.226-4.066
		c-4.669-2.711-8.359-6.401-11.069-11.069c-2.711-4.669-4.066-9.744-4.066-15.226c0-5.783,1.566-11.16,4.699-16.129
		c-6.054,1.807-11.001,5.256-14.842,10.346s-5.76,10.873-5.76,17.349c0,3.916,0.768,7.658,2.304,11.227
		c1.536,3.569,3.592,6.641,6.167,9.217c2.575,2.575,5.648,4.631,9.217,6.167c3.569,1.536,7.312,2.305,11.227,2.305
		c4.337,0,8.457-0.926,12.357-2.779C107.654,117.605,110.974,115.022,113.716,111.709L113.716,111.709z M122.887,107.868
		c-2.831,6.114-7.101,11.001-12.809,14.661c-5.707,3.66-11.935,5.489-18.682,5.489c-4.699,0-9.187-0.918-13.464-2.756
		c-4.277-1.837-7.967-4.307-11.069-7.409c-3.103-3.103-5.572-6.792-7.41-11.069c-1.837-4.277-2.756-8.765-2.756-13.464
		c0-4.608,0.866-9.014,2.598-13.216c1.732-4.202,4.081-7.839,7.048-10.911c2.967-3.073,6.514-5.55,10.64-7.432
		c4.126-1.883,8.494-2.914,13.103-3.095c1.325-0.06,2.244,0.527,2.756,1.762c0.542,1.235,0.316,2.319-0.678,3.253
		c-2.591,2.349-4.571,5.083-5.941,8.201c-1.37,3.117-2.055,6.408-2.055,9.872c0,4.458,1.099,8.569,3.298,12.334
		c2.199,3.765,5.181,6.747,8.946,8.946c3.765,2.199,7.876,3.298,12.334,3.298c3.554,0,6.988-0.768,10.301-2.304
		c1.235-0.542,2.319-0.346,3.253,0.587c0.422,0.422,0.685,0.934,0.791,1.536S123.128,107.326,122.887,107.868L122.887,107.868z"/>
</g>
</svg>
