<?xml version="1.0" standalone="no"?><!DOCTYPE svg PUBLIC "-//W3C//DTD SVG 1.1//EN" "http://www.w3.org/Graphics/SVG/1.1/DTD/svg11.dtd"><svg t="1557731801240" class="icon" style="" viewBox="0 0 1024 1024" version="1.1" xmlns="http://www.w3.org/2000/svg" p-id="10590" xmlns:xlink="http://www.w3.org/1999/xlink" width="48" height="48"><defs><style type="text/css"></style></defs><path d="M932.981 644.538c-16.379 0-35.29 13.401-35.29 29.78v120.165c0 57.030-46.011 103.189-102.594 103.189h-569.106c-56.732 0-102.594-46.159-102.594-103.189v-567.914c0-57.030 45.862-103.189 102.594-103.189h252.091c16.379 0 29.632 1.489 29.632-14.89s-13.252-44.67-29.632-44.67h-295.87c-65.368 0-118.377 53.307-118.377 119.122v655.171c0 65.815 53.009 119.122 118.377 119.122h656.66c65.368 0 118.377-53.307 118.377-119.122v-163.793c0.001-16.379-7.891-29.78-24.27-29.78zM247.731 742.963c-4.765 32.46 17.422 54.2 49.584 48.245l188.808-34.099-209.208-210.549-29.185 196.403zM639.643 280.024c23.229-23.377 60.603-23.377 83.832 0l41.842 41.99c23.080 23.377 23.080 61.050 0 84.278l-188.363 189.554c-23.080 23.229-60.603 23.229-83.683 0l-41.842-42.14c-23.080-23.229-23.080-60.901 0-84.278l188.214-189.405zM535.113 722.264l355.728-358.11-209.208-210.548-355.728 357.962 209.208 210.697zM935.809 304.594c34.694-34.844 24.42-81.152-10.274-115.995l-83.683-84.279c-34.694-34.844-90.831-34.844-125.525 0l209.208 210.548 10.274-10.274z" p-id="10591"></path></svg>