<?xml version="1.0" standalone="no"?><!DOCTYPE svg PUBLIC "-//W3C//DTD SVG 1.1//EN" "http://www.w3.org/Graphics/SVG/1.1/DTD/svg11.dtd"><svg t="1556594845538" class="icon" style="" viewBox="0 0 1024 1024" version="1.1" xmlns="http://www.w3.org/2000/svg" p-id="6435" xmlns:xlink="http://www.w3.org/1999/xlink" width="16" height="16"><defs><style type="text/css"></style></defs><path d="M670.19 491.958c0-95.211-77.472-172.683-172.687-172.683-95.227 0-172.699 77.472-172.699 172.683 0 95.227 77.472 172.698 172.7 172.698 95.214 0 172.685-77.472 172.685-172.698z m-293.698 0c0-66.718 54.29-120.995 121.01-120.995 66.719 0 120.994 54.277 120.994 120.995s-54.275 121.01-120.994 121.01c-66.72 0-121.01-54.287-121.01-121.01z m0 0" p-id="6436"></path><path d="M720.478 866.62h-61.966l-46.384-115.93c127.158-46.864 218.264-168.897 218.264-312.124 0-183.551-149.34-332.891-332.89-332.891-183.55 0-332.89 149.339-332.89 332.891 0 141.048 88.332 261.59 212.46 309.997-0.093 0.209-0.276 0.34-0.364 0.556l-46.9 117.505h-44.994c-14.274 0-25.846 11.571-25.846 25.841 0 14.275 11.572 25.847 25.846 25.847h62.426c0.02 0 0.044 0.013 0.064 0.013 0.028 0 0.056-0.013 0.084-0.013H640.94c0.028 0 0.056 0.013 0.084 0.013 0.02 0 0.044-0.013 0.064-0.013h79.39c14.27 0 25.843-11.572 25.843-25.847-0.001-14.27-11.573-25.845-25.844-25.845zM216.301 438.566c0-155.054 126.146-281.201 281.201-281.201 155.059 0 281.2 126.146 281.2 281.201 0 155.057-126.145 281.201-281.2 281.201s-281.2-126.148-281.2-281.2z m208.412 329.711c0.635-1.595 0.583-3.233 0.887-4.86 23.188 5.133 47.196 8.038 71.903 8.038 22.396 0 44.261-2.295 65.432-6.535 0.291 1.217 0.192 2.45 0.667 3.645l39.237 98.058H385.46l39.254-98.346z m0 0" p-id="6437"></path><path d="M460.787 253.335c0 10.484 4.316 20.907 11.732 28.322 7.415 7.41 17.831 11.728 28.316 11.728s20.906-4.318 28.321-11.728c7.415-7.415 11.728-17.838 11.728-28.322 0-10.484-4.313-20.906-11.728-28.321-7.415-7.411-17.836-11.728-28.32-11.728-10.487 0-20.902 4.317-28.317 11.728-7.416 7.415-11.732 17.837-11.732 28.32z m0 0" p-id="6438"></path></svg>