<?xml version="1.0" encoding="iso-8859-1"?>
<!-- Generator: Adobe Illustrator 22.0.0, SVG Export Plug-In . SVG Version: 6.00 Build 0)  -->
<svg version="1.1" id="&#x56FE;&#x5C42;_1" xmlns="http://www.w3.org/2000/svg" xmlns:xlink="http://www.w3.org/1999/xlink" x="0px"
	 y="0px" viewBox="0 0 1024 768" style="enable-background:new 0 0 1024 768;" xml:space="preserve">
<path d="M177.228,346.818"/>
<g>
	<path d="M396.474,15.935h-273.09c-30.313,0-45.504,15.191-45.504,45.504v637.187c0,30.309,15.191,45.43,45.504,45.43h273.09
		c30.312,0,45.429-15.121,45.429-45.43V61.439C441.903,31.126,426.786,15.935,396.474,15.935z M259.892,123.4
		c41.129,0,74.472,33.344,74.472,74.473c0,41.128-33.343,74.472-74.472,74.472c-41.129,0-74.473-33.344-74.473-74.472
		C185.419,156.744,218.763,123.4,259.892,123.4z M342.556,379.958H177.228v-33.14h165.328V379.958z"/>
	<path d="M434.306,156.615c-15.883-0.266-30.821,7.527-39.692,20.703c-8.156,12.57-8.156,28.762,0,41.332
		c8.871,13.176,23.809,20.969,39.692,20.703H846.81c25.32,0,45.8-18.543,45.8-41.406c0-22.789-20.48-41.332-45.8-41.332H434.306z
		 M434.306,115.208H846.81c50.644,0,91.601,37.086,91.601,82.739c0,45.726-40.957,82.738-91.601,82.738H434.306
		c-50.641,0-91.602-37.012-91.602-82.664C342.704,152.294,383.665,115.208,434.306,115.208L434.306,115.208z M434.306,115.208"/>
	<path d="M569.696,115.208h47.219l-94.582,165.477h-47.215L569.696,115.208z M758.782,115.208h47.293l-94.582,165.477h-47.289
		L758.782,115.208z M758.782,115.208"/>
	<g>
		<polygon points="521.519,414.785 628.917,414.785 662.763,477.681 695.278,517.123 763.236,414.785
			882.895,414.785 919.137,518.188 903.148,573.622 882.361,573.088 887.957,525.917 874.365,490.206 871.702,572.555
			854.645,728.458 826.927,728.458 825.061,585.613 809.339,585.613 782.956,729.257 752.043,729.257 761.635,572.288
			761.635,494.737 693.145,553.366 639.579,515.258 637.714,572.555 619.59,729.523 588.41,729.523 588.41,585.88 572.686,585.88
			544.436,728.458 516.721,728.458 527.383,572.555 524.716,501.132 484.474,549.635 484.474,570.689 497.535,570.689
			497.535,678.888 455.426,678.888 455.426,570.689 468.484,570.689 468.484,548.837 459.157,544.839 		"/>
		<path d="M837.856,297.526c-24.518-14.924-56.499-6.928-71.422,17.59
			c-14.924,24.519-6.929,56.499,17.587,71.423c24.519,14.924,56.499,6.928,71.423-17.591
			C870.367,344.43,862.374,312.449,837.856,297.526L837.856,297.526z"/>
		<path d="M552.432,297.526c24.518-14.924,56.499-6.928,71.422,17.59
			c14.924,24.519,6.929,56.499-17.59,71.423c-24.516,14.924-56.496,6.928-71.42-17.591
			C520.185,344.43,527.913,312.449,552.432,297.526L552.432,297.526z"/>
	</g>
</g>
</svg>
