<?xml version="1.0" encoding="iso-8859-1"?>
<!-- Generator: Adobe Illustrator 22.0.0, SVG Export Plug-In . SVG Version: 6.00 Build 0)  -->
<svg version="1.1" id="&#x56FE;&#x5C42;_1" xmlns="http://www.w3.org/2000/svg" xmlns:xlink="http://www.w3.org/1999/xlink" x="0px"
	 y="0px" width="694.852px" height="766.305px" viewBox="0 0 694.852 766.305" style="enable-background:new 0 0 694.852 766.305;"
	 xml:space="preserve">
<path style="fill:none;" d="M458.182,553.741c7.462,0.196,14.832-1.679,21.291-5.419c12.922-7.873,20.932-21.798,21.243-36.923
	c-0.033-7.467-2.071-14.786-5.898-21.196c-3.768-6.637-9.338-12.073-16.064-15.68c-6.808-3.693-13.667-5.516-20.572-5.516
	c-7.22,0.209-14.288,2.133-20.619,5.611c-6.748,3.567-12.351,8.971-16.16,15.585c-3.904,6.448-5.945,13.849-5.9,21.386
	c0.052,11.255,4.581,22.028,12.589,29.936C436.101,549.435,446.926,553.83,458.182,553.741z M442.596,501.711
	c1.496-2.897,3.838-5.274,6.713-6.808c2.643-1.472,5.608-2.263,8.632-2.301c2.976,0.048,5.894,0.84,8.488,2.301
	c2.87,1.522,5.212,3.88,6.713,6.761c1.542,2.802,2.428,5.917,2.591,9.112c0.038,3.21-0.825,6.367-2.495,9.112
	c-1.613,2.673-3.872,4.897-6.569,6.474c-8.462,4.831-19.238,1.89-24.073-6.571c-1.736-2.609-2.623-5.691-2.541-8.823
	C440.156,507.724,441.027,504.552,442.596,501.711z"/>
<path style="fill:none;" d="M577.105,574.025c-6.81-3.646-13.619-5.468-20.38-5.468c-7.224,0.06-14.316,1.941-20.62,5.468
	c-6.748,3.635-12.344,9.083-16.161,15.728c-3.895,6.433-5.936,13.818-5.898,21.338c0.051,15.124,8.266,29.043,21.483,36.397
	l21.148,5.61c7.436,0.04,14.751-1.897,21.194-5.61c13.066-7.588,21.188-21.479,21.388-36.587c-0.048-7.461-2.12-14.771-5.995-21.148
	C589.45,583.108,583.852,577.66,577.105,574.025z M566.316,626.724c-2.654,1.602-5.729,2.371-8.824,2.206
	c-6.384,0-12.271-3.446-15.393-9.015c-1.684-2.649-2.552-5.733-2.493-8.872c0.088-3.223,0.942-6.38,2.493-9.207
	c1.48-2.885,3.829-5.234,6.713-6.713c2.688-1.414,5.649-2.232,8.68-2.398h0.048c6.413,0.035,12.296,3.565,15.345,9.207
	c1.564,2.778,2.358,5.925,2.302,9.112C575.048,617.428,571.714,623.317,566.316,626.724z"/>
<polygon style="fill:none;" points="409.798,638.522 428.979,657.895 605.686,482.818 586.504,464.021 "/>
<path style="fill:none;" d="M458.182,554.741c7.462,0.196,14.832-1.679,21.291-5.419c12.922-7.873,20.932-21.798,21.243-36.923
	c-0.033-7.467-2.071-14.786-5.898-21.196c-3.768-6.637-9.338-12.073-16.064-15.68c-6.808-3.693-13.667-5.516-20.572-5.516
	c-7.22,0.209-14.288,2.133-20.619,5.611c-6.748,3.567-12.351,8.971-16.16,15.585c-3.904,6.448-5.945,13.849-5.9,21.386
	c0.052,11.255,4.581,22.028,12.589,29.936C436.101,550.435,446.926,554.83,458.182,554.741z M442.596,502.711
	c1.496-2.897,3.838-5.274,6.713-6.808c2.643-1.472,5.608-2.263,8.632-2.301c2.976,0.048,5.894,0.84,8.488,2.301
	c2.87,1.522,5.212,3.88,6.713,6.761c1.542,2.802,2.428,5.917,2.591,9.112c0.038,3.21-0.825,6.367-2.495,9.112
	c-1.613,2.673-3.872,4.897-6.569,6.474c-8.462,4.831-19.238,1.89-24.073-6.571c-1.736-2.609-2.623-5.691-2.541-8.823
	C440.156,508.724,441.027,505.552,442.596,502.711z"/>
<path style="fill:none;" d="M577.105,575.025c-6.81-3.646-13.619-5.468-20.38-5.468c-7.224,0.06-14.316,1.941-20.62,5.468
	c-6.748,3.635-12.344,9.083-16.161,15.728c-3.895,6.433-5.936,13.818-5.898,21.338c0.051,15.124,8.266,29.043,21.483,36.397
	l21.148,5.61c7.436,0.04,14.751-1.897,21.194-5.61c13.066-7.588,21.188-21.479,21.388-36.587c-0.048-7.461-2.12-14.771-5.995-21.148
	C589.45,584.108,583.852,578.66,577.105,575.025z M566.316,627.724c-2.654,1.602-5.729,2.371-8.824,2.206
	c-6.384,0-12.271-3.446-15.393-9.015c-1.684-2.649-2.552-5.733-2.493-8.872c0.088-3.223,0.942-6.38,2.493-9.207
	c1.48-2.885,3.829-5.234,6.713-6.713c2.688-1.414,5.649-2.232,8.68-2.398h0.048c6.413,0.035,12.296,3.565,15.345,9.207
	c1.564,2.778,2.358,5.925,2.302,9.112C575.048,618.428,571.714,624.317,566.316,627.724z"/>
<polygon style="fill:none;" points="409.798,639.522 428.979,658.895 605.686,483.818 586.504,465.021 "/>
<path style="fill:none;" d="M577.105,575.025c-6.81-3.646-13.619-5.468-20.38-5.468c-7.224,0.06-14.316,1.941-20.62,5.468
	c-6.748,3.635-12.344,9.083-16.161,15.728c-3.895,6.433-5.936,13.818-5.898,21.338c0.051,15.124,8.266,29.043,21.483,36.397
	l21.148,5.61c7.436,0.04,14.751-1.897,21.194-5.61c13.066-7.588,21.188-21.479,21.388-36.587c-0.048-7.461-2.12-14.771-5.995-21.148
	C589.45,584.108,583.852,578.66,577.105,575.025z"/>
<path style="fill:none;" d="M458.182,554.741c7.462,0.196,14.832-1.679,21.291-5.419c12.922-7.873,20.932-21.798,21.243-36.923
	c-0.033-7.467-2.071-14.786-5.898-21.196c-3.768-6.637-9.338-12.073-16.064-15.68c-6.808-3.693-13.667-5.516-20.572-5.516
	c-7.22,0.209-14.288,2.133-20.619,5.611c-6.748,3.567-12.351,8.971-16.16,15.585c-3.904,6.448-5.945,13.849-5.9,21.386
	c0.052,11.255,4.581,22.028,12.589,29.936C436.101,550.435,446.926,554.83,458.182,554.741z"/>
<polygon style="fill:none;" points="409.798,639.522 428.979,658.895 605.686,483.818 586.504,465.021 "/>
<path style="fill:none;" d="M458.182,554.741c7.462,0.196,14.832-1.679,21.291-5.419c12.922-7.873,20.932-21.798,21.243-36.923
	c-0.033-7.467-2.071-14.786-5.898-21.196c-3.768-6.637-9.338-12.073-16.064-15.68c-6.808-3.693-13.667-5.516-20.572-5.516
	c-7.22,0.209-14.288,2.133-20.619,5.611c-6.748,3.567-12.351,8.971-16.16,15.585c-3.904,6.448-5.945,13.849-5.9,21.386
	c0.052,11.255,4.581,22.028,12.589,29.936C436.101,550.435,446.926,554.83,458.182,554.741z M442.596,502.711
	c1.496-2.897,3.838-5.274,6.713-6.808c2.643-1.472,5.608-2.263,8.632-2.301c2.976,0.048,5.894,0.84,8.488,2.301
	c2.87,1.522,5.212,3.88,6.713,6.761c1.542,2.802,2.428,5.917,2.591,9.112c0.038,3.21-0.825,6.367-2.495,9.112
	c-1.613,2.673-3.872,4.897-6.569,6.474c-8.462,4.831-19.238,1.89-24.073-6.571c-1.736-2.609-2.623-5.691-2.541-8.823
	C440.156,508.724,441.027,505.552,442.596,502.711z"/>
<path style="fill:none;" d="M577.105,575.025c-6.81-3.646-13.619-5.468-20.38-5.468c-7.224,0.06-14.316,1.941-20.62,5.468
	c-6.748,3.635-12.344,9.083-16.161,15.728c-3.895,6.433-5.936,13.818-5.898,21.338c0.051,15.124,8.266,29.043,21.483,36.397
	l21.148,5.61c7.436,0.04,14.751-1.897,21.194-5.61c13.066-7.588,21.188-21.479,21.388-36.587c-0.048-7.461-2.12-14.771-5.995-21.148
	C589.45,584.108,583.852,578.66,577.105,575.025z M566.316,627.724c-2.654,1.602-5.729,2.371-8.824,2.206
	c-6.384,0-12.271-3.446-15.393-9.015c-1.684-2.649-2.552-5.733-2.493-8.872c0.088-3.223,0.942-6.38,2.493-9.207
	c1.48-2.885,3.829-5.234,6.713-6.713c2.688-1.414,5.649-2.232,8.68-2.398h0.048c6.413,0.035,12.296,3.565,15.345,9.207
	c1.564,2.778,2.358,5.925,2.302,9.112C575.048,618.428,571.714,624.317,566.316,627.724z"/>
<polygon style="fill:none;" points="409.798,639.522 428.979,658.895 605.686,483.818 586.504,465.021 "/>
<g>
	<path d="M466.669,527.36c2.696-1.577,4.955-3.801,6.569-6.474c1.67-2.744,2.534-5.901,2.495-9.112
		c-0.163-3.194-1.048-6.309-2.591-9.112c-1.502-2.881-3.843-5.239-6.713-6.761c-2.594-1.462-5.511-2.253-8.488-2.301
		c-3.024,0.038-5.989,0.829-8.632,2.301c-2.876,1.535-5.217,3.911-6.713,6.808c-1.57,2.841-2.44,6.013-2.541,9.256
		c-0.082,3.131,0.805,6.214,2.541,8.823C447.431,529.25,458.207,532.191,466.669,527.36z"/>
	<path d="M557.54,593.726h-0.048c-3.031,0.166-5.992,0.984-8.68,2.398c-2.885,1.48-5.234,3.828-6.713,6.713
		c-1.551,2.826-2.405,5.983-2.493,9.207c-0.059,3.139,0.809,6.223,2.493,8.872c3.123,5.568,9.009,9.015,15.393,9.015
		c3.095,0.165,6.17-0.604,8.824-2.206c5.398-3.408,8.731-9.296,8.87-15.68c0.057-3.187-0.738-6.333-2.302-9.112
		C569.836,597.291,563.953,593.761,557.54,593.726z"/>
	<path d="M505.704,369.115c-105.936,0-191.813,85.877-191.813,191.813c0,105.934,85.877,191.81,191.813,191.81
		c105.934,0,191.81-85.877,191.81-191.81C697.515,454.991,611.638,369.115,505.704,369.115z M421.403,491.203
		c3.809-6.615,9.412-12.018,16.16-15.585c6.331-3.477,13.399-5.402,20.619-5.611c6.905,0,13.764,1.822,20.572,5.516
		c6.726,3.607,12.296,9.044,16.064,15.68c3.827,6.409,5.865,13.728,5.898,21.196c-0.311,15.126-8.321,29.05-21.243,36.923
		c-6.459,3.739-13.829,5.614-21.291,5.419c-11.255,0.089-22.081-4.306-30.09-12.216c-8.008-7.908-12.538-18.681-12.589-29.936
		C415.458,505.053,417.499,497.651,421.403,491.203z M577.872,648.488c-6.443,3.714-13.758,5.65-21.194,5.61l-21.148-5.61
		c-13.217-7.354-21.432-21.273-21.483-36.397c-0.038-7.52,2.003-14.905,5.898-21.338c3.818-6.646,9.413-12.093,16.161-15.728
		c6.304-3.527,13.396-5.407,20.62-5.468c6.761,0,13.569,1.822,20.38,5.468c6.746,3.635,12.344,9.083,16.16,15.728
		c3.874,6.377,5.947,13.687,5.995,21.148C599.06,627.009,590.938,640.901,577.872,648.488z M428.979,658.895l-19.182-19.374
		l176.707-174.5l19.181,18.797L428.979,658.895z"/>
	<path d="M299.744,559.926c0-93.886,64.598-172.673,151.769-194.37c-18.972-7.951-38.914-14.206-59.668-18.532
		c68.613-27.137,113.734-93.379,113.859-167.164C505.574,80.555,425.09,0.094,325.785,0
		c-99.304,0.094-179.789,80.555-179.918,179.86c0.118,73.805,45.27,140.058,113.918,167.164C108.625,378.5,0.219,511.618,0,666.02
		c0,38.148,26.856,50.844,48.387,60.969l1.172,0.523c86.769,30.602,212.273,38.793,272.773,38.793
		c34.268,0,85.585-2.893,139.005-9.826C369.239,738.443,299.744,657.307,299.744,559.926z"/>
</g>
</svg>
