<?xml version="1.0" encoding="iso-8859-1"?>
<!-- Generator: Adobe Illustrator 22.0.0, SVG Export Plug-In . SVG Version: 6.00 Build 0)  -->
<svg version="1.1" id="&#x56FE;&#x5C42;_1" xmlns="http://www.w3.org/2000/svg" xmlns:xlink="http://www.w3.org/1999/xlink" x="0px"
	 y="0px" viewBox="0 0 1024 768" style="enable-background:new 0 0 1024 768;" xml:space="preserve">
<path d="M829.74,595.99l0.01,0.01c-0.08,0.16-0.17,0.32-0.25,0.47c-1.09,2.02-2.42,3.91-3.93,5.63
	C722.2,750.87,528.61,806.66,361.92,735.71S101.23,486.56,136.8,308.93c1.67-7.13,5.96-13.37,12.02-17.5
	c13.03-9.08,30.96-5.92,40.09,7.08l96.53,137.88l0.34,0.43c5.83,8.49,6.7,19.45,2.27,28.75s-13.49,15.52-23.76,16.34
	c-10.26,0.81-20.19-3.92-26.02-12.41l-41.07-58.66l-8.77,3.2c12.67,136.5,109.73,250.33,242.52,284.42
	c132.78,34.09,272.67-18.91,349.53-132.43c5.53-7.4,14.23-11.75,23.47-11.73c10.09-0.02,19.45,5.24,24.68,13.87
	C833.76,576.65,834.17,587.16,829.74,595.99z"/>
<path d="M206.028,202.563c-6.096-4.602-10.113-11.438-11.167-19.005c-1.054-7.564,0.939-15.236,5.544-21.331
	C304.845,15.706,497.329-38.146,662.64,32.906c165.314,71.051,258.699,247.769,224.256,424.376
	c-1.373,7.816-5.852,14.74-12.41,19.201l-2.034,4.024c-11.008,5.138-28.944,1.938-38.062-11.056l-96.572-137.881l-0.293-0.485
	c-9.01-13.119-5.678-31.059,7.443-40.069c13.119-9.011,31.059-5.679,40.069,7.442l41.064,58.663l8.774-3.2
	c-12.609-135.688-108.62-249.056-240.379-283.837C462.74,35.306,323.284,86.512,245.346,198.298
	c-9.923,11.544-27.101,13.408-39.27,4.265H206.028z"/>
<path style="fill:#2F8FF0;" d="M188.888,192.386"/>
<g>
	<path d="M332.656,575.978l-9.469-40.714c9.814,1.584,19.731,2.428,29.67,2.524c2.482,0.191,4.923-0.711,6.683-2.471
		c1.759-1.763,2.661-4.204,2.47-6.682v-85.218l-34.402,12.309l-10.733-42.295c15.148-3.788,31.562-8.204,45.134-13.257v-87.425
		h-41.031v-41.347h41.031v-70.068h42.295v70.068h33.453v41.347h-33.453v69.753c10.1-4.737,20.513-10.733,31.562-16.413v43.238
		c-10.1,5.368-20.518,10.733-31.562,15.465v114.571c1.809,10.159-1.46,20.564-8.758,27.861c-7.294,7.294-17.698,10.562-27.857,8.754
		H332.656z"/>
	<path d="M686.47,235.42c-77.033,12.106-154.961,17.595-232.93,16.413l-12.942-38.19c75.438,0.665,150.833-3.763,225.671-13.257
		L686.47,235.42z"/>
	<path d="M518.56,306.122l-34.403,13.257c-7.447-19.058-16.529-37.429-27.146-54.92l36.299-9.785
		c9.398,16.413,17.323,33.629,23.669,51.448H518.56z"/>
	<path d="M606.933,506.225c25.13-20.995,44.835-47.738,57.444-77.961v-20.514h24.934l-0.948-84.589h-44.186
		c11.805-19.719,22.347-40.174,31.561-61.227l-40.082-15.154c-9.469,26.473-21.299,52.034-35.35,76.381H442.494v84.589h21.462
		v22.726h17.356c11.012,28.315,28.273,53.776,50.504,74.485c-33.899,15.261-69.349,26.797-105.734,34.402l22.409,40.714
		c41.866-10.354,82.19-26.164,119.935-47.027c32.723,20.979,68.347,37.034,105.735,47.659l25.565-38.823
		C667.533,533.583,636.399,521.62,606.933,506.225z M482.894,364.192h165.07v27.778h-165.07V364.192z M569.691,482.236h-1.581
		c-17.86-14.138-32.676-31.745-43.555-51.759h94.687C606.302,450.832,589.46,468.421,569.691,482.236z"/>
	<path d="M590.836,305.805l-34.402,13.257c-7.615-19.445-16.796-38.232-27.462-56.184l35.983-10.096
		c9.809,16.837,17.947,34.598,24.301,53.024H590.836z"/>
</g>
</svg>
