<?xml version="1.0" standalone="no"?><!DOCTYPE svg PUBLIC "-//W3C//DTD SVG 1.1//EN" "http://www.w3.org/Graphics/SVG/1.1/DTD/svg11.dtd"><svg t="1561455429063" class="icon" viewBox="0 0 1026 1024" version="1.1" xmlns="http://www.w3.org/2000/svg" p-id="1362" xmlns:xlink="http://www.w3.org/1999/xlink" width="32.0625" height="32"><defs><style type="text/css"></style></defs><path d="M937.484676 720.964563a38.373636 38.373636 0 0 0-52.560253 13.488914 435.133771 435.133771 0 0 1-795.38081-116.283744l55.816198 55.58363a38.373636 38.373636 0 0 0 54.188224-54.188225l-134.19144-135.354278A37.908501 37.908501 0 0 0 23.261879 476.070998a37.908501 37.908501 0 0 0-23.256749 35.582825 511.648474 511.648474 0 0 0 950.735893 260.708155 38.606203 38.606203 0 0 0-13.256347-51.397415z" fill="#ffffff" p-id="1363"></path><path d="M511.653605 0.005349A507.927394 507.927394 0 0 0 51.635113 287.691332a38.745744 38.745744 0 0 0 69.770246 33.722286 434.901203 434.901203 0 0 1 812.358237 84.654566l-68.142274-68.142274a38.234095 38.234095 0 1 0-53.955657 54.188224l146.28495 146.28495a38.141068 38.141068 0 0 0 27.210396 11.16324 40.931878 40.931878 0 0 0 14.651752-2.79081A38.373636 38.373636 0 0 0 1023.302079 511.653823a511.648474 511.648474 0 0 0-511.648474-511.648474z" fill="#ffffff" p-id="1364"></path></svg>