<?xml version="1.0" standalone="no"?><!DOCTYPE svg PUBLIC "-//W3C//DTD SVG 1.1//EN" "http://www.w3.org/Graphics/SVG/1.1/DTD/svg11.dtd"><svg t="1561528141111" class="icon" viewBox="0 0 1024 1024" version="1.1" xmlns="http://www.w3.org/2000/svg" p-id="1342" xmlns:xlink="http://www.w3.org/1999/xlink" width="32" height="32"><defs><style type="text/css"></style></defs><path d="M304 752l-54.4 54.4c80 80 192 128 304 128 240 0 432-192 432-432s-192-432-432-432-432 192-432 432h76.8c0-195.2 160-352 352-352 195.2 0 352 156.8 352 352s-156.8 352-352 352c-89.6 0-179.2-38.4-246.4-102.4z" fill="#ffffff" p-id="1343"></path><path d="M169.6 659.2l83.2-86.4 80-86.4H9.6l80 86.4zM537.6 227.2h22.4l9.6 304H531.2z" fill="#ffffff" p-id="1344"></path><path d="M531.2 531.2l166.4 134.4 12.8-16-153.6-150.4z" fill="#ffffff" p-id="1345"></path></svg>