<?xml version="1.0" standalone="no"?><!DOCTYPE svg PUBLIC "-//W3C//DTD SVG 1.1//EN" "http://www.w3.org/Graphics/SVG/1.1/DTD/svg11.dtd"><svg t="1556594881474" class="icon" style="" viewBox="0 0 1024 1024" version="1.1" xmlns="http://www.w3.org/2000/svg" p-id="7978" xmlns:xlink="http://www.w3.org/1999/xlink" width="16" height="16"><defs><style type="text/css"></style></defs><path d="M943.788 468.65L585.919 87.583c-20.324-21.642-47.128-32.46-73.917-32.46-26.79 0-53.588 10.817-73.91 32.46L80.211 468.65c-40.65 43.284-25.323 78.705 34.058 78.705h64.656v329.221c0 50.974 41.34 92.3 92.306 92.3h481.537c50.959 0 92.312-41.326 92.312-92.3v-329.22h64.65c59.382 0 74.705-35.425 34.057-78.706z m-34.058 32.544H798.91v375.382c0 25.44-20.705 46.146-46.142 46.146H271.231c-25.446 0-46.15-20.704-46.15-46.146V501.194H114.27c-0.438 0-0.868 0-1.282-0.008 0.282-0.303 0.577-0.62 0.873-0.946l357.878-381.06c10.846-11.535 25.141-17.903 40.263-17.903 15.126 0 29.435 6.36 40.28 17.902l357.873 381.07c0.28 0.317 0.59 0.625 0.874 0.945h-1.299z" p-id="7979"></path><path d="M553.55 499.264H305.466v330.005h413.076V499.264H553.55zM486.62 783.11H351.614v-94.946h135.003v94.946h0.001z m0-141.102H351.614v-96.596h135.003v96.596zM672.384 783.11H532.761v-94.946h139.623v94.946z m0-141.102H532.761v-96.596h139.623v96.596h0.001z" p-id="7980"></path></svg>