<?xml version="1.0" standalone="no"?><!DOCTYPE svg PUBLIC "-//W3C//DTD SVG 1.1//EN" "http://www.w3.org/Graphics/SVG/1.1/DTD/svg11.dtd"><svg t="1556594796175" class="icon" style="" viewBox="0 0 1024 1024" version="1.1" xmlns="http://www.w3.org/2000/svg" p-id="5053" xmlns:xlink="http://www.w3.org/1999/xlink" width="16" height="16"><defs><style type="text/css"></style></defs><path d="M972.888 839.264c-0.003-139.786-80.267-259.269-193.774-307.996 54.974-39.618 91.202-107.115 91.202-183.765 0-104.65-67.5-192.23-158.103-215.007-0.84-0.22-1.629-0.103-2.396 0.218-1.032-0.104-2.03-0.343-3.078-0.343-19.357 0-35.047 16.93-35.047 37.805 0 18.856 12.837 34.352 29.577 37.204 2.98 1.31 6.887 2.308 7.04 2.367 52.47 19.206 90.23 72.708 90.23 135.79 0 70.341-46.976 128.792-108.93 141.026-0.088 0.008-0.161 0.18-0.248 0.227-20.61 1.405-36.983 19.697-36.983 42.276 0 22.919 16.85 41.482 37.902 42.387 0.148 0.076 0.274 0.324 0.424 0.334 124.602 13.688 212.926 128.16 212.926 267.485 0 20.62 15.508 37.344 34.634 37.344 18.658 0 33.76-15.956 34.488-35.888 0.024-0.194 0.139-0.35 0.139-0.542 0-0.07-0.022-0.14-0.022-0.223 0.01-0.233 0.022-0.458 0.022-0.686v-0.013h-0.003M557.914 537.466c65.646-47.436 108.888-128.095 108.888-219.718 0-145.993-109.742-264.355-245.123-264.355-135.376 0-245.125 118.362-245.125 264.355 0 91.63 43.25 172.282 108.887 219.718C149.74 595.87 53.793 738.796 53.793 905.982c0 9.416 0.496 18.681 1.163 27.901h0.062c0 20.35 15.293 36.831 34.165 36.831 18.861 0 34.158-16.48 34.158-36.83 0-1.148-0.216-2.228-0.315-3.352-0.657-8.111-1.223-16.236-1.223-24.55 0-178.61 134.253-323.388 299.873-323.388s299.877 144.779 299.877 323.388c0 8.618-0.565 17.096-1.27 25.5-0.002 0.439-0.118 0.837-0.118 1.278 0 0.138 0.04 0.264 0.04 0.393-0.022 0.24-0.014 0.494-0.04 0.73h0.113c0.565 19.804 15.549 35.716 34.048 35.716 18.508 0 33.49-15.902 34.057-35.717h0.074c0.641-9.224 1.1-18.495 1.1-27.887 0.006-167.199-95.935-310.125-231.643-368.529M421.679 507.64c-97.245 0-176.076-85.019-176.076-189.892 0-104.868 78.831-189.886 176.076-189.886 97.246 0 176.075 85.017 176.075 189.886 0 104.873-78.829 189.892-176.075 189.892m0 0z" p-id="5054"></path></svg>