<?xml version="1.0" encoding="iso-8859-1"?>
<!-- Generator: Adobe Illustrator 22.0.0, SVG Export Plug-In . SVG Version: 6.00 Build 0)  -->
<svg version="1.1" id="&#x56FE;&#x5C42;_1" xmlns="http://www.w3.org/2000/svg" xmlns:xlink="http://www.w3.org/1999/xlink" x="0px"
	 y="0px" viewBox="0 0 1024 768" style="enable-background:new 0 0 1024 768;" xml:space="preserve">
<path d="M469.868,354.832"/>
<g>
	<rect x="261.629" y="673.129" width="539.254" height="38.523"/>
	<path d="M762.371-20.199H261.633c-42.543,0-77.039,34.492-77.039,77.039v635.558c0,53.192,43.125,96.282,96.293,96.282h558.508
		v-38.524H280.887c-31.902,0-57.77-25.863-57.77-57.769c0-31.895,25.868-57.782,57.77-57.782h558.519V56.84
		C839.406,14.297,804.914-20.199,762.371-20.199z M800.883,596.102H280.887c-21.781,0-41.66,7.503-57.77,19.683V56.852
		c0-21.258,17.258-38.516,38.512-38.516h500.742c21.243,0,38.512,17.246,38.512,38.504V596.102z"/>
	<polygon points="582.96,404.277 595.644,391.593 524.695,320.689 524.695,234.262 506.821,234.262 506.821,320.689 
		435.784,391.593 448.509,404.277 510.77,342.064 520.702,342.064 	"/>
	<path d="M543.433,150.181c14.726-9.371,25.436-26.775,25.436-45.518c0-29.451-24.097-53.549-53.55-53.549
		c-29.452,0-53.55,24.097-53.55,53.549c0,18.742,10.71,36.147,25.437,45.518c-30.791,10.71-52.211,40.162-52.211,74.969h13.387
		c0-37.485,29.453-66.937,66.937-66.937c37.485,0,66.937,29.453,66.937,66.937h13.387
		C595.644,190.342,574.224,160.891,543.433,150.181z M475.158,104.663c0-22.758,17.403-40.161,40.161-40.161
		s40.163,17.403,40.163,40.161c0,22.759-17.404,40.163-40.163,40.163S475.158,127.422,475.158,104.663z"/>
	<path d="M704.081,476.556c14.726-9.371,25.436-26.775,25.436-45.518c0-29.451-24.097-53.549-53.55-53.549
		c-29.452,0-53.55,24.097-53.55,53.549c0,18.742,10.71,36.147,25.437,45.518c-30.791,10.71-52.211,40.162-52.211,74.969h13.387
		c0-37.485,29.453-66.937,66.937-66.937c37.485,0,66.937,29.453,66.937,66.937h13.387
		C756.292,516.717,734.873,487.266,704.081,476.556z M635.806,431.038c0-22.758,17.403-40.161,40.161-40.161
		s40.163,17.403,40.163,40.161c0,22.759-17.404,40.163-40.163,40.163S635.806,453.797,635.806,431.038z"/>
	<path d="M390.877,476.556c14.726-9.371,25.436-26.775,25.436-45.518c0-29.451-24.097-53.549-53.55-53.549
		c-29.452,0-53.55,24.097-53.55,53.549c0,18.742,10.71,36.147,25.437,45.518c-30.791,10.71-52.211,40.162-52.211,74.969h13.387
		c0-37.485,29.453-66.937,66.937-66.937c37.485,0,66.937,29.453,66.937,66.937h13.387
		C443.088,516.717,421.669,487.266,390.877,476.556z M322.602,431.038c0-22.758,17.403-40.161,40.162-40.161
		s40.163,17.403,40.163,40.161c0,22.759-17.404,40.163-40.163,40.163S322.602,453.797,322.602,431.038z"/>
</g>
</svg>
