<?xml version="1.0" encoding="utf-8"?>
<!-- Generator: Adobe Illustrator 22.0.0, SVG Export Plug-In . SVG Version: 6.00 Build 0)  -->
<svg version="1.1" id="图层_1" xmlns="http://www.w3.org/2000/svg" xmlns:xlink="http://www.w3.org/1999/xlink" x="0px" y="0px"
	 viewBox="0 0 128.3 127.9" style="enable-background:new 0 0 128.3 127.9;" xml:space="preserve">
<style type="text/css">
	.st0{fill:#999999;}
</style>
<g>
	<path d="M54.2,0C37.3,0,22.7,14.6,22.7,32.4c0,10,4.5,19.1,12.3,25.5l2.3,1.4L35,60.2C14,68.4,0,88.4,0,111.2c0,4.1,1.6,8.1,4.5,11
		c2.9,2.9,6.9,4.5,11,4.5h41.5c1.4,0,3.6-1.3,3.6-4.1c0-3.2-2.3-4.1-3.6-4.1H15.4c-1.9,0-3.8-0.7-5.2-2.1c-1.4-1.4-2.1-3.2-2.1-5.2
		C8.1,87,26.8,67,50.5,64.7h5c5.5-0.4,13.2-1.9,17.3-5.5l1.9-1.4C82.4,51.5,87,42.4,87,32.4C87,14.6,72.4,0,54.2,0z M55,56.5
		c-13.2,0-24.2-11-24.2-24.2C30.8,19.1,41.8,8.2,55,8.2c13.2,0,24.2,11,24.2,24.2C79.2,45.6,68.3,56.5,55,56.5z"/>
	<path d="M127,88.8c-0.4-2.3-2.3-4.1-4.1-4.1h-0.4c-4.1,0-7.2-3.2-7.2-7.3c0-0.9,0.4-2.3,0.4-2.7c0.9-2.3,0-5-1.9-6.4l-8.2-4.6h-2.3
		c-1.3,0-3.2,0.4-4.1,1.8c-0.9,0.9-3.6,3.2-5.5,3.2c-1.9,0-4.6-2.3-5.9-3.2c-0.9-0.9-2.3-1.8-4.1-1.8c-0.9,0-1.3,0-1.9,0.4l-8.7,4.6
		c-1.9,1.4-2.7,4.1-1.9,6.4c0,0,0.4,1.4,0.4,2.7c0,1.9-0.7,3.8-2.1,5.2c-1.4,1.4-3.2,2.1-5.2,2.1H64c-1.9,0-3.6,1.9-4.1,4.1
		c0,0.4-0.9,3.6-0.9,6.8c0,2.7,0.4,6.4,0.9,6.8c0.4,2.3,2.3,4.1,4.1,4.1h0.4c4.1,0,7.2,3.2,7.2,7.3c0,0.9-0.4,2.3-0.4,2.7
		c-0.9,2.3,0,5,1.9,6.4l8.2,4.6c0.9-0.4,1.4-0.4,2.3-0.4c1.4,0,3.2-0.4,4.1-1.9c0.9-0.9,3.6-3.6,5.9-3.6c1.9,0,5,2.3,5.9,3.6
		c0.9,0.9,2.3,1.9,4.1,1.9c0.9,0,1.3,0,2.3-0.4l8.2-4.6c1.8-1.3,2.7-4.1,1.8-6.4c0,0-0.4-1.3-0.4-2.7c0-4.1,3.2-7.3,7.3-7.3h0.4
		c1.8,0,3.6-1.9,4.1-4.1c0,0,0.9-3.6,0.9-6.8C127.4,93,127,89.3,127,88.8z M120.6,100.2c-6.8,0.9-11.9,6.4-11.9,13.6
		c0,1.4,0.4,3.2,0.9,4.1l-5.9,3.2l-2.3-2.3c-2.7-1.9-5-2.7-7.8-2.7c-2.3,0-5,0.9-7.8,2.7c-0.9,0.9-1.9,1.4-2.3,2.3l-5.5-3.2
		c0.4-0.9,0.9-2.7,0.9-4.1c0-6.9-5.1-12.7-11.9-13.6c0-0.9-0.4-2.7-0.4-4.6c0-1.4,0.4-3.2,0.4-4.6c6.8-0.9,11.9-6.4,11.9-13.7
		c0-1.4-0.4-3.2-0.9-4.1l5.9-3.2c0.4,0.4,1.3,1.4,2.3,1.9c2.7,1.8,5,2.7,7.3,2.7c2.3,0,4.5-0.9,7.2-2.7c0.9-0.9,1.9-1.4,2.3-1.9
		l5.9,3.2c-0.4,0.9-0.9,2.7-0.9,4.1c0,6.9,5.1,12.7,11.9,13.7c0,0.9,0.4,2.7,0.4,4.6C121.1,97,120.6,98.9,120.6,100.2z"/>
	<path d="M96,83.4c-8.7-1.9-16.4,5.9-14.6,15c0.9,5,5,9.1,10,10c8.7,1.9,16.4-5.9,14.6-14.6C105.2,88.4,101,84.3,96,83.4L96,83.4z"
		/>
</g>
<path class="st0" d="M252.7,184.9"/>
</svg>
