<?xml version="1.0" encoding="utf-8"?>
<!-- Generator: Adobe Illustrator 22.0.0, SVG Export Plug-In . SVG Version: 6.00 Build 0)  -->
<svg version="1.1" id="图层_1" xmlns="http://www.w3.org/2000/svg" xmlns:xlink="http://www.w3.org/1999/xlink" x="0px" y="0px"
	 viewBox="0 0 127.9 128" style="enable-background:new 0 0 127.9 128;" xml:space="preserve">
<g>
	<path d="M51.3,0C22.9,0,0,24,0,53.5s23,53.5,51.3,53.5c3.3-7.9,8.7-14.7,15.6-19.6C55,73.7,56,52.5,69.3,40.1
		c7.9-7.4,18.8-10.3,29.2-7.6C90.4,12.8,71.9,0,51.3,0z M53.2,49.5c0,1.2-0.5,2.3-1.4,3.1v0.1L31.6,70.5c-1.8,1.3-4.3,0.9-5.6-0.9
		c-1.2-1.7-1-4,0.4-5.5l18.7-16.6V30.1c0-2.3,1.8-4.1,4-4.1c2.2,0,4,1.9,4,4.1L53.2,49.5L53.2,49.5z"/>
	<path d="M90.8,37.8c-14.5,0-26.2,12.2-26.2,27.3s11.7,27.3,26.2,27.3S117,80.2,117,65.1S105.3,37.8,90.8,37.8z M90.8,86
		c-11.1,0-20-9.3-20-20.8s9-20.8,20-20.8l0,0c11,0,20,9.3,20,20.8S101.9,86,90.8,86z"/>
	<path d="M124.8,128c-1.7,0-3.1-1.5-3.1-3.2l0,0c0-8.5-3.3-16.8-9-22.8c-1.2-1.3-1.2-3.3,0-4.6c1.2-1.3,3.2-1.3,4.3,0
		c7,7.2,10.9,17.1,10.9,27.4C127.9,126.6,126.5,128.1,124.8,128L124.8,128z"/>
	<path d="M56.9,128c-1.7,0-3.1-1.5-3.1-3.2l0,0c0-21.4,16.6-38.6,37-38.6c1.7,0,3.1,1.5,3.1,3.2c0,1.8-1.4,3.2-3.1,3.2
		c-17,0-30.8,14.4-30.8,32.2C60,126.6,58.6,128,56.9,128L56.9,128L56.9,128z"/>
</g>
</svg>
