<?xml version="1.0" encoding="utf-8"?>
<!-- Generator: Adobe Illustrator 22.0.0, SVG Export Plug-In . SVG Version: 6.00 Build 0)  -->
<svg version="1.1" id="图层_1" xmlns="http://www.w3.org/2000/svg" xmlns:xlink="http://www.w3.org/1999/xlink" x="0px" y="0px"
	 viewBox="0 0 128 128.1" style="enable-background:new 0 0 128 128.1;" xml:space="preserve">
<g>
	<path d="M6.3,48.8c3.5-3.2,4.5-4.1,4.8-4.4l9-7.4L61.3,1l-0.2,0.1C61.4,1,61.4,1,61.4,1l0,0l0.1-0.1c0,0,0.1-0.1,0.1-0.1l0.1-0.1
		c0,0,0.1-0.1,0.1-0.1l0.1,0c0,0,0,0,0,0c0,0,0,0,0.2-0.1l0.1,0c0.1,0,0.1,0,0.2-0.1c0,0-0.1,0-0.1,0l0.1-0.1L62.6,0
		c0,0.2-0.1,0.2-0.1,0.3C63.1,0.1,63.7,0,64.3,0h0l0,0l0.2,0l0.1,0c0,0,0.1,0,0.1,0l0.1,0h0l0.1,0l0,0c0,0,0,0,0.1,0h0l0.1,0l0.2,0
		c0,0-0.1,0,0,0c0,0,0,0,0,0c0,0,0,0,0.1,0l0,0l0.1,0l-0.1,0c0,0,0.1,0,0.1,0.1l0,0c0,0,0,0,0,0c0,0,0,0,0,0l0,0c0.1,0,0.1,0,0.1,0
		c-0.1,0-0.1,0,0,0l0,0c0.3,0.2,0.6,0.4,0.9,0.6l39.7,34.6l0.6-0.3v-4.8c0-2.3,1.8-4.1,4.1-4.1c2.3,0,4.1,1.8,4.1,4.1v12.6l11.3,10
		c1.7,1.5,1.9,4.1,0.4,5.8c-0.8,0.9-1.9,1.4-3.1,1.4c-1,0-2-0.4-2.7-1L64.2,9.8h-0.5L6.8,59.4c-1.7,1.5-4.2,1.3-5.7-0.3
		c0,0-0.1-0.1-0.1-0.1c-1.5-1.7-1.3-4.3,0.4-5.8C3,51.7,4.7,50.3,6.3,48.8L6.3,48.8L6.3,48.8z"/>
	<path d="M111.9,60.8c2.1,0,3.8,1.7,3.8,3.8v44.7c0,10.3-7.5,18.7-16.7,18.7H29.1c-9.2,0-16.7-8.4-16.7-18.7V64.6
		c0-2.1,1.7-3.8,3.8-3.8c2.1,0,3.8,1.7,3.8,3.8v44.7c0,6,4.1,11.1,9.1,11.1H99c5,0,9.1-5.1,9.1-11.1V64.6
		C108.1,62.5,109.8,60.8,111.9,60.8L111.9,60.8z"/>
	<path d="M54.5,89.8l3.6,3.7l-4.4,4.4l-3.6-3.6h-0.5l-2.5,2.5v0.5l3.6,3.6l-4.4,4.4L38.1,97l20.1-20.4l0.1-0.5
		c-1.6-2.7-2.4-5.7-2.4-9.4c0-9.8,7.6-17.4,17.2-17.4s17.2,7.7,17.2,17.4c0,9.8-7.6,17.4-17.2,17.4c-3.7,0-6.8-1-10-3.1l-0.5,0
		l-8.1,8.2L54.5,89.8L54.5,89.8z M73,55.6c-6.2,0-10.9,4.8-10.9,11.1c0,6.3,4.7,11.1,10.9,11.1c6.2,0,10.9-4.8,10.9-11.1
		C83.9,60.6,79,55.6,73,55.6L73,55.6z"/>
</g>
</svg>
