<?xml version="1.0" encoding="utf-8"?>
<!-- Generator: Adobe Illustrator 22.0.0, SVG Export Plug-In . SVG Version: 6.00 Build 0)  -->
<svg version="1.1" id="图层_1" xmlns="http://www.w3.org/2000/svg" xmlns:xlink="http://www.w3.org/1999/xlink" x="0px" y="0px"
	 viewBox="0 0 128 128" style="enable-background:new 0 0 128 128;" xml:space="preserve">
<g>
	<path d="M66.4,107c1.3-1.2,2.3-2.4,2.9-3.4c0.6-1,0.8-1.6,0.3-1.6h-0.9h-26h-0.9c-0.4,0-0.3,0.5,0.3,1.6c0.6,1,1.6,2.2,2.9,3.4
		c1.3,1.2,2.9,2.4,4.7,3.4c1.8,1,3.7,1.6,5.7,1.6c0.1,0,0.2,0,0.2,0c0.1,0,0.2,0,0.2,0c2,0,3.9-0.5,5.7-1.6
		C63.6,109.3,65.1,108.2,66.4,107z"/>
	<path d="M16.6,96.5c0.3,0.4,0.6,0.7,1,1c0,0,0,0,0,0c0.2,0.1,0.5,0.2,0.8,0.2c0.1,0,0.3,0.1,0.4,0.1h0.1h73.9h0.1
		c0.1,0,0.3-0.1,0.4-0.1c0.3-0.1,0.6-0.1,0.8-0.2c0,0,0,0,0,0c0.4-0.2,0.7-0.6,1-1c0.3-0.4,0.4-0.9,0.5-1.5c0-0.6-0.2-1.2-0.7-1.8
		c-1.3-1.8-2.7-3.9-4.3-6.4c-1.6-2.5-3.1-5.2-4.5-8.2c-1.4-3-2.6-6.2-3.6-9.5c-1-3.3-1.5-6.7-1.5-10.2c0-3.4-0.5-6.4-1.4-9.2
		c-0.9-2.8-2.1-5.2-3.6-7.3c-1.5-2.1-3.3-3.9-5.4-5.4c-2.1-1.5-4.2-2.5-6.5-3.3c-2.4-0.7-5.1-1.1-7.9-1.1c-0.1,0-0.1,0-0.2,0h0h0
		c-0.1,0-0.1,0-0.2,0c-2.8,0-5.5,0.4-7.9,1.1c-2.3,0.8-4.5,1.9-6.6,3.3c-2.1,1.5-3.8,3.2-5.4,5.4c-1.5,2.1-2.7,4.6-3.7,7.3
		c-0.9,2.7-1.4,5.8-1.4,9.2c0,3.4-0.5,6.8-1.5,10.2c-1,3.3-2.2,6.5-3.6,9.5c-1.4,3-2.9,5.7-4.5,8.2c-1.6,2.5-3,4.6-4.3,6.4l0,0
		c-0.5,0.6-0.7,1.2-0.7,1.8C16.1,95.6,16.3,96.1,16.6,96.5z"/>
	<path d="M128,104.8V7.2c0-4-3.2-7.2-7.2-7.2L23,0c-4,0-7.2,3.2-7.2,7.2V16H7.2c-4,0-7.2,3.2-7.2,7.2v97.6c0,4,3.2,7.2,7.2,7.2H105
		c4,0,7.2-3.2,7.2-7.2V112h8.6C124.8,112,128,108.7,128,104.8z M22.6,7.2c0-0.2,0.2-0.5,0.5-0.5h97.8c0.2,0,0.5,0.2,0.5,0.5v97.6
		c0,0.2-0.2,0.5-0.5,0.5h-8.6v-82c0-4-3.2-7.2-7.2-7.2H22.6V7.2z M105,121.3H7.2c-0.2,0-0.5-0.2-0.5-0.5V23.2c0-0.2,0.2-0.5,0.5-0.5
		H105c0.2,0,0.5,0.2,0.5,0.5v97.6C105.4,121,105.2,121.3,105,121.3z"/>
</g>
</svg>
