<?xml version="1.0" encoding="utf-8"?>
<!-- Generator: Adobe Illustrator 22.0.0, SVG Export Plug-In . SVG Version: 6.00 Build 0)  -->
<svg version="1.1" id="图层_1" xmlns="http://www.w3.org/2000/svg" xmlns:xlink="http://www.w3.org/1999/xlink" x="0px" y="0px"
	 viewBox="0 0 128 128" style="enable-background:new 0 0 128 128;" xml:space="preserve">
<g>
	<path d="M125.7,71.5l-27.4-16c-1.4-0.8-3.2-0.8-4.6,0l-27.4,16c-1.4,0.8-2.3,2.3-2.3,3.9v32c0,1.6,0.9,3.1,2.3,3.9l27.4,16
		c0.7,0.4,1.5,0.6,2.3,0.6c0.8,0,1.6-0.2,2.3-0.6l27.4-16c1.4-0.8,2.3-2.3,2.3-3.9v-32C128,73.8,127.1,72.3,125.7,71.5L125.7,71.5z
		 M118.9,104.8L96,118.1l-22.9-13.3V78.1L96,64.7l22.9,13.3L118.9,104.8L118.9,104.8z M65.5,118.9h-61c-2.5,0-4.6,2-4.6,4.6
		c0,2.5,2,4.6,4.6,4.6h61c2.5,0,4.6-2,4.6-4.6C70.1,120.9,68,118.9,65.5,118.9z"/>
	<path d="M4.6,109.7H53c2.5,0,4.6-2,4.6-4.6c0-2.5-2-4.6-4.6-4.6H9.1V54.9c0-25.2,20.5-45.7,45.7-45.7c22.5,0,41.5,16.1,45.1,38.3
		c0.4,2.5,2.7,4.2,5.2,3.8c2.5-0.4,4.2-2.8,3.8-5.2C104.7,19.3,81.9,0,54.9,0C24.6,0,0,24.6,0,54.9v50.3C0,107.7,2,109.7,4.6,109.7z
		"/>
	<path d="M37.9,22.5c-9.1,4.8-15.8,13.2-18.4,23.1c-0.6,2.4,0.8,4.9,3.3,5.6c0.4,0.1,0.8,0.2,1.2,0.2c2,0,3.9-1.4,4.4-3.4
		c2-7.4,7-13.8,13.8-17.3c2.2-1.2,3.1-3.9,1.9-6.2C42.9,22.1,40.1,21.3,37.9,22.5z M96,84.6c3.8,0,6.9,3.1,6.9,6.9s-3.1,6.9-6.9,6.9
		c-3.8,0-6.9-3.1-6.9-6.9S92.2,84.6,96,84.6z"/>
</g>
</svg>
