<?xml version="1.0" encoding="utf-8"?>
<!-- Generator: Adobe Illustrator 22.0.0, SVG Export Plug-In . SVG Version: 6.00 Build 0)  -->
<svg version="1.1" id="图层_1" xmlns="http://www.w3.org/2000/svg" xmlns:xlink="http://www.w3.org/1999/xlink" x="0px" y="0px"
	 viewBox="0 0 128 128" style="enable-background:new 0 0 128 128;" xml:space="preserve">
<path d="M66.9,49.6l-4.3,26.7h17.5L58.4,112l4.2-26.7H45.1L66.9,49.6z M123.2,118.4h-15.4V75.7c0-24-19.6-43.7-44.1-43.7
	c-24.4,0-44.1,19.7-44.1,43.7v42.7H4.8c-2.6,0-4.8,2.1-4.8,4.8c0,0,0,0,0,0c0,2.7,2.1,4.8,4.8,4.8h118.4c2.6,0,4.8-2.1,4.8-4.7
	c0,0,0,0,0,0v0C128,120.6,125.9,118.4,123.2,118.4C123.2,118.4,123.2,118.4,123.2,118.4L123.2,118.4L123.2,118.4z M33.5,29.3
	l7.4-4.3l-8-13.3c-0.5-1.1-1.6-1.6-2.7-2.1c-1.1,0-2.1,0-3.2,0.5c-2.1,1.1-2.7,3.7-1.6,5.9C25.5,16,33.5,29.3,33.5,29.3z M2.1,42.7
	l13.3,8l4.3-7.5l-13.3-8c-1.1-0.5-2.1-1.1-3.2-0.5c-1.1,0.5-2.1,1.1-2.7,2.1C-0.5,38.9,0,41.6,2.1,42.7z M59.5,19.7h9V4.3
	c0-2.1-2.1-4.3-4.8-4.3c-2.7,0-4.8,2.1-4.2,4.3C59.5,4.3,59.5,19.7,59.5,19.7z M125.3,42.7c2.1-1.1,2.7-3.7,1.6-5.9
	c-0.5-1.1-1.6-1.6-3.2-2.1c-1.1,0-2.1,0-3.2,0.5l-13.3,8l4.2,7.5L125.3,42.7L125.3,42.7z M101.4,16c1.1-2.1,0.5-4.8-1.6-5.9
	c-0.5-0.5-2.1-0.5-3.2-0.5c-1.1,0.5-1.6,1.1-2.7,2.1l-8,13.3l7.4,4.3L101.4,16L101.4,16z"/>
</svg>
