<?xml version="1.0" standalone="no"?><!DOCTYPE svg PUBLIC "-//W3C//DTD SVG 1.1//EN" "http://www.w3.org/Graphics/SVG/1.1/DTD/svg11.dtd"><svg t="1556592969171" class="icon" style="" viewBox="0 0 1024 1024" version="1.1" xmlns="http://www.w3.org/2000/svg" p-id="4302" xmlns:xlink="http://www.w3.org/1999/xlink" width="16" height="16"><defs><style type="text/css"></style></defs><path d="M624.638 518.624v-40.518c0-17.652-14.313-31.965-31.965-31.965h-132.327c-17.658 0-31.965 14.313-31.965 31.965v40.203c0 17.625 14.268 31.929 31.89 31.965l132.327 0.315c17.673 0.038 32.040-14.286 32.040-31.965M583.469 500.225c0 10.533-9.189 19.087-20.52 19.087h-72.885c-11.331 0-20.52-8.553-20.52-19.087v-3.642c0-10.557 9.189-19.098 20.52-19.098h72.885c11.331 0 20.52 8.542 20.52 19.098v3.642zM578.42 594.598c2.817 11.076 12.942 18.705 24.39 18.705 18.885 0.038 36.443-0.204 52.665-0.687 21.776-0.648 38.439-7.347 49.973-20.1 11.547-12.768 17.31-31.626 17.31-56.637v-246.702c0-21.891-17.741-39.63-39.63-39.63h-313.238c-21.897 0-39.63 17.741-39.63 39.63v130.542c0.237 59.313-8.826 106.253-27.202 140.82-7.455 14.049-3.249 31.309 9.759 40.466 0.195 0.141 0.405 0.282 0.597 0.435 15.533 10.961 37.53 6.33 46.372-10.497 22.507-42.852 33.743-98.118 33.743-165.78v-108.78c0.002-12.019 9.745-21.761 21.765-21.761 0.001 0 0.002 0 0.004 0h82.32v26.802h-60.672c0 0 0 0 0 0-10.299 0-18.648 8.348-18.648 18.648 0 0.002 0 0.005 0 0.007 0 0.002 0 0.004 0 0.006 0 10.292 8.344 18.637 18.637 18.637 0.005 0 0.008 0 0.012 0h60.672v26.421h-72.6c-10.301 0.008-18.648 8.359-18.648 18.66 0 0.002 0 0.005 0 0.007v0.762c0.002 10.297 8.348 18.641 18.645 18.641 0.001 0 0.002 0 0.004 0h203.895c0.004 0 0.007 0 0.012 0 10.289 0 18.63-8.341 18.63-18.63 0-0.005 0-0.008 0-0.012v-0.761c0-0.007 0-0.016 0-0.023 0-10.296-8.347-18.641-18.641-18.641 0 0 0 0 0 0h-71.685v-26.421h60.684c0.004 0 0.007 0 0.012 0 10.289 0 18.63-8.341 18.63-18.63 0-0.005 0-0.008 0-0.012 0-0.004 0-0.008 0-0.014 0-10.294-8.346-18.639-18.639-18.639-0.001 0-0.002 0-0.004 0h-60.684v-26.805h80.43c0.001 0 0.002 0 0.003 0 12.052 0 21.822 9.77 21.822 21.822 0 0.002 0 0.005 0 0.007v215.946c0 7.245-1.725 14.109-5.154 20.595-3.45 6.472-16.089 9.705-37.941 9.705-4.545 0-8.934-0.038-13.248-0.099-16.699-0.282-28.944 15.266-24.846 31.47 0.049 0.18 0.102 0.372 0.126 0.534M852.701 96.177h-681.387c-60.273 0-109.314 49.503-109.314 110.337v570.3c0.023 60.822 49.065 110.325 109.314 110.325h467.828c0.138 0 15.948-0.354 35.694 3.874 32.412 6.952 50.328 20.708 59.643 30.999 3.226 3.577 7.876 5.814 13.049 5.814 0.004 0 0.007 0 0.010 0 4.608-0.007 8.801-1.778 11.941-4.676 7.183-6.643 2.579-47.172-25.327-75.067-24.822-24.834-89.631-19.605-95.786-19.452h-444.276c-40.755 0-73.926-33.502-73.926-74.643v-524.679c0-41.182 33.147-74.643 73.926-74.643h635.82c40.761 0 73.935 33.476 73.935 74.643v547.509c0 41.168-33.174 74.631-73.935 74.631h-14.085c-9.771 0-24.693 8.871-24.693 30.813 0 25.177 14.925 27.687 24.693 27.687h36.864c60.292 0 109.314-49.492 109.314-110.337v-593.097c-0.003-60.834-49.027-110.337-109.301-110.337M221.495 694.28c0 15.723 12.747 28.488 28.482 28.488h535.44c15.735 0 28.476-12.765 28.476-28.488s-12.741-28.488-28.476-28.488h-535.44c-15.735 0-28.482 12.765-28.482 28.488z" p-id="4303"></path></svg>